<svg width="19" height="15" viewBox="0 0 19 15" fill="none" xmlns="http://www.w3.org/2000/svg">
<path d="M16.3111 0H2.68895C1.976 0.00082218 1.29251 0.264623 0.788419 0.733533C0.284325 1.20244 0.000785609 1.83817 0 2.50127L0 12.4987C0.000785609 13.1618 0.284325 13.7976 0.788419 14.2665C1.29251 14.7354 1.976 14.9992 2.68895 15H16.3111C17.024 14.9992 17.7075 14.7354 18.2116 14.2665C18.7157 13.7976 18.9992 13.1618 19 12.4987V2.50127C18.9992 1.83817 18.7157 1.20244 18.2116 0.733533C17.7075 0.264623 17.024 0.00082218 16.3111 0ZM6.89529 5.01496L4.06645 7.646L6.58209 9.98504C6.68349 10.0827 6.73959 10.2135 6.73832 10.3492C6.73706 10.485 6.67851 10.6148 6.57531 10.7108C6.4721 10.8068 6.33249 10.8612 6.18654 10.8624C6.04059 10.8636 5.89998 10.8114 5.795 10.7171L2.88563 8.01116C2.78127 7.91407 2.72265 7.78241 2.72265 7.64513C2.72265 7.50785 2.78127 7.37619 2.88563 7.27911L6.10783 4.28221C6.21231 4.18509 6.35398 4.13055 6.50169 4.13058C6.64941 4.13061 6.79105 4.18522 6.89548 4.28239C6.9999 4.37955 7.05855 4.51132 7.05851 4.64871C7.05848 4.78609 6.99977 4.91783 6.89529 5.01496ZM11.4868 3.79659L8.54332 11.5482C8.49411 11.6777 8.39161 11.7837 8.25838 11.8429C8.12514 11.9021 7.97208 11.9096 7.83286 11.8638C7.69365 11.8181 7.57968 11.7227 7.51604 11.5988C7.45239 11.4749 7.44429 11.3325 7.4935 11.2031L10.437 3.45145C10.4862 3.32197 10.5887 3.21597 10.722 3.15678C10.8552 3.09759 11.0083 3.09005 11.1475 3.13582C11.2867 3.18158 11.4007 3.27691 11.4643 3.40083C11.5279 3.52475 11.536 3.66711 11.4868 3.79659ZM16.1144 7.72055L12.8922 10.7174C12.7877 10.8146 12.6461 10.8691 12.4984 10.8691C12.3508 10.8691 12.2091 10.8146 12.1047 10.7174C12.0003 10.6203 11.9416 10.4886 11.9416 10.3512C11.9416 10.2139 12.0003 10.0822 12.1047 9.98504L14.9336 7.354L12.4179 5.01496C12.3165 4.91731 12.2604 4.78654 12.2617 4.65079C12.2629 4.51505 12.3215 4.3852 12.4247 4.28921C12.5279 4.19322 12.6675 4.13877 12.8135 4.13759C12.9594 4.13642 13.1 4.1886 13.205 4.2829L16.1144 6.98884C16.2187 7.08593 16.2774 7.21759 16.2774 7.35487C16.2774 7.49215 16.2187 7.62381 16.1144 7.72089V7.72055Z" fill="currentcolor"/>
</svg>
