<svg width="33" height="32" viewBox="0 0 33 32" fill="none" xmlns="http://www.w3.org/2000/svg">
<path d="M3.04007 13.0524C3.32723 12.6855 3.85427 12.6307 4.2172 12.9297L6.59917 14.8913C6.13983 9.67928 9.27272 4.70023 14.3434 3.15603C17.1741 2.29397 20.18 2.61562 22.8074 4.06187C23.2174 4.28751 23.3757 4.80764 23.161 5.22343C22.9463 5.63933 22.4399 5.79356 22.0299 5.56777C19.7993 4.33985 17.2471 4.06682 14.8437 4.79875C10.4373 6.14068 7.75656 10.5378 8.30343 15.0753L10.5355 12.2238C10.8226 11.8568 11.3497 11.8021 11.7127 12.1011C12.0757 12.4 12.1372 12.9397 11.8501 13.3065L8.51826 17.5627C8.518 17.563 8.51782 17.5632 8.51768 17.5635C8.43628 17.6674 8.33572 17.7462 8.22496 17.7992C8.18812 17.8168 8.15009 17.8316 8.11128 17.8434C7.85576 17.9212 7.5664 17.8722 7.34058 17.6863L3.17761 14.2579C2.81443 13.9588 2.75298 13.4192 3.04007 13.0524Z" fill="#222222"/>
<path d="M28.1911 14.26C27.4517 14.4581 27.0124 15.2189 27.2106 15.9583L27.6293 17.521C27.6623 17.6443 27.5891 17.7711 27.4659 17.8041C27.3426 17.8371 27.2158 17.7639 27.1828 17.6407L26.5248 15.185C26.3267 14.4456 25.5658 14.0063 24.8264 14.2044C24.087 14.4025 23.6478 15.1634 23.8459 15.9028L24.5039 18.3585C24.5369 18.4817 24.4637 18.6085 24.3404 18.6415C24.2172 18.6746 24.0904 18.6013 24.0574 18.4781L23.1601 15.1295C22.962 14.3901 22.2011 13.9508 21.4618 14.1489C20.7224 14.347 20.2831 15.1079 20.4812 15.8473L21.3785 19.1959C21.4115 19.3192 21.3383 19.446 21.215 19.479C21.0918 19.512 20.965 19.4388 20.932 19.3156L18.4795 10.1626C18.2813 9.4232 17.5205 8.98392 16.7811 9.18203C16.0417 9.38015 15.6024 10.141 15.8005 10.8804L18.5983 21.3219L15.2536 20.3298L15.2509 20.3306C15.0209 20.2582 14.7607 20.2513 14.5017 20.3207C13.7605 20.5193 13.3226 21.2779 13.5212 22.0191C13.5906 22.2781 13.729 22.509 13.918 22.6784L13.9152 22.6754L19.885 28.4922C20.8189 29.402 22.1629 29.753 23.4229 29.4153L29.4281 27.8062C31.4007 27.2777 32.5715 25.2498 32.0429 23.2773L29.8895 15.2405C29.6914 14.5011 28.9305 14.0618 28.1911 14.26Z" fill="#222222"/>
</svg>
