<svg width="21" height="21" viewBox="0 0 21 21" fill="none" xmlns="http://www.w3.org/2000/svg">
<path d="M20.26 9.6625L17.4 6.8325C17.08 6.5125 16.56 6.5125 16.24 6.8325C16.08 6.9825 16 7.1925 16 7.4125C16 7.6325 16.09 7.8325 16.24 7.9925L17.69 9.4325H10.87V2.8025L12.31 4.2525C12.62 4.5625 13.16 4.5625 13.47 4.2525C13.79 3.9325 13.79 3.4125 13.47 3.0925L10.63 0.2325C10.32 -0.0775 9.78 -0.0775 9.47 0.2325L6.64 3.0925C6.32 3.4125 6.32 3.9325 6.64 4.2525C6.95 4.5625 7.49 4.5625 7.8 4.2525L9.24 2.8025V9.4225H2.81L4.26 7.9825C4.42 7.8325 4.5 7.6225 4.5 7.4025C4.5 7.1825 4.41 6.9825 4.26 6.8225C3.94 6.5025 3.42 6.5025 3.1 6.8225L0.24 9.6625C0.08 9.8125 0 10.0225 0 10.2425C0 10.4625 0.09 10.6725 0.24 10.8225L3.1 13.6525C3.42 13.9725 3.94 13.9725 4.26 13.6525C4.42 13.5025 4.5 13.2925 4.5 13.0725C4.5 12.8525 4.41 12.6525 4.26 12.4925L2.81 11.0525H9.23V17.6725L7.79 16.2225C7.64 16.0625 7.43 15.9825 7.21 15.9825C6.99 15.9825 6.79 16.0725 6.63 16.2225C6.31 16.5425 6.31 17.0625 6.63 17.3825L9.46 20.2425C9.61 20.4025 9.82 20.4825 10.04 20.4825C10.26 20.4825 10.47 20.3925 10.62 20.2425L13.45 17.3825C13.77 17.0625 13.77 16.5425 13.45 16.2225C13.14 15.9125 12.6 15.9125 12.29 16.2225L10.85 17.6725V11.0525H17.67L16.22 12.4925C16.06 12.6425 15.98 12.8525 15.98 13.0725C15.98 13.2925 16.07 13.4925 16.22 13.6525C16.54 13.9725 17.06 13.9725 17.38 13.6525L20.24 10.8225C20.4 10.6725 20.48 10.4625 20.48 10.2425C20.48 10.0225 20.39 9.8125 20.24 9.6625H20.26Z" fill="#231F20"/>
</svg>
