<svg width="18" height="18" viewBox="0 0 18 18" fill="none" xmlns="http://www.w3.org/2000/svg">
<path d="M17.4165 1.24838C18.1945 2.02522 18.1945 3.28479 17.4165 4.06163L16.3509 5.13081L12.8697 1.65048L13.9389 0.582723C14.7169 -0.194241 15.9743 -0.194241 16.7523 0.582723L17.4165 1.24838ZM6.12403 8.39872L12.0669 2.45396L15.5481 5.93358L9.60166 11.8762C9.38497 12.0964 9.11856 12.2598 8.82372 12.3593L5.66935 13.4107C5.33189 13.5102 5.0264 13.432 4.7955 13.1727C4.56816 12.9738 4.49001 12.6364 4.58947 12.3309L5.64093 9.17663C5.74039 8.88181 5.90379 8.6154 6.12403 8.39872ZM6.82027 2.05471C7.44901 2.05471 7.95698 2.59569 7.95698 3.19137C7.95698 3.85206 7.44901 4.32804 6.82027 4.32804H3.41013C2.78246 4.32804 2.27342 4.86796 2.27342 5.4647V14.59C2.27342 15.2187 2.78246 15.7267 3.41013 15.7267H12.5038C13.1326 15.7267 13.6405 15.2187 13.6405 14.59V11.148C13.6405 10.5513 14.1485 10.0114 14.7772 10.0114C15.406 10.0114 15.914 10.5513 15.914 11.148V14.59C15.914 16.4726 14.3865 18 12.5038 18H3.41013C1.52675 18 0 16.4726 0 14.59V5.4647C0 3.5821 1.52675 2.05471 3.41013 2.05471H6.82027Z" fill="#444444"/>
</svg>
