<svg width="238" height="242" viewBox="0 0 238 242" fill="none" xmlns="http://www.w3.org/2000/svg">
<g clip-path="url(#clip0_996_115666)">
<path d="M146.265 0H31.3005C24.5352 0 19.0508 5.48441 19.0508 12.2498V87.985C19.0508 94.7504 24.5352 100.235 31.3005 100.235H146.265C153.03 100.235 158.514 94.7504 158.514 87.985V12.2498C158.514 5.48441 153.03 0 146.265 0Z" fill="#EAEAEA"/>
<path d="M210.424 201.105L237.961 177.006L128.578 52.0139L101.04 76.1127L210.424 201.105Z" fill="url(#paint0_linear_996_115666)"/>
<path d="M211.649 188.45C211.337 188.45 211.029 188.441 210.717 188.419C207.054 188.177 203.703 186.521 201.285 183.755C198.866 180.99 197.669 177.453 197.912 173.786C198.155 170.123 199.815 166.772 202.576 164.353C205.342 161.935 208.879 160.738 212.546 160.981C216.209 161.224 219.559 162.88 221.978 165.645C226.972 171.35 226.391 180.054 220.687 185.047C218.159 187.258 214.978 188.45 211.649 188.45ZM211.61 161.956C208.523 161.956 205.58 163.062 203.239 165.112C200.678 167.353 199.143 170.457 198.918 173.855C198.692 177.249 199.802 180.53 202.043 183.092C204.284 185.654 207.388 187.188 210.786 187.414C214.18 187.639 217.462 186.53 220.023 184.289C225.312 179.663 225.845 171.597 221.22 166.313C218.979 163.751 215.875 162.216 212.477 161.991C212.186 161.974 211.9 161.961 211.614 161.961L211.61 161.956Z" fill="white"/>
<path d="M176.783 67.7805C178.262 58.6663 172.073 50.0784 162.959 48.599C153.844 47.1195 145.256 53.3087 143.777 62.423C142.297 71.5372 148.487 80.1251 157.601 81.6046C166.715 83.084 175.303 76.8948 176.783 67.7805Z" fill="#14336A"/>
<path d="M158.826 81.9421C156.915 81.643 153.17 67.2953 153.17 67.2953C148.896 64.4517 150.352 58.2965 151.375 55.3273C151.574 54.7507 150.92 54.2566 150.417 54.599C149.203 55.4183 147.565 56.7794 146.46 58.6996C146.173 59.1981 143.646 63.6975 143.646 63.6975L141.912 63.2077C140.989 62.9476 140.135 63.7798 140.365 64.7075L140.863 66.6927C138.904 72.9433 136.511 76.7665 146.382 79.8268C147.439 80.1562 146.382 85.4705 146.121 86.5455L147.513 90.9625L166.343 92.0549L158.822 81.9378L158.826 81.9421Z" fill="url(#paint1_linear_996_115666)"/>
<path d="M151.536 70.1605C152.441 71.3048 154.401 71.3872 155.914 70.3468C157.426 69.3065 157.921 67.538 157.015 66.398C156.109 65.2536 154.149 65.1713 152.637 66.2116C151.124 67.2519 150.63 69.0204 151.536 70.1605Z" fill="url(#paint2_linear_996_115666)"/>
<path d="M142.056 84.2616C142.056 91.8386 148.198 97.9852 155.779 97.9852C163.361 97.9852 169.503 91.843 169.503 84.2616C169.503 76.6803 163.361 70.5381 155.779 70.5381C148.198 70.5381 142.056 76.6803 142.056 84.2616Z" fill="#14336A"/>
<path d="M159.628 242L152.147 195.086C148.575 201.276 144.362 209.139 139.494 219.884C137.743 223.751 133.668 232.377 129.091 242H92.064L134.938 144.054L166.126 148.276L175.181 144.054C194.275 169.828 183.837 170.239 190.972 218.926C191.566 222.975 192.728 231.9 194.02 242H159.633H159.628Z" fill="url(#paint3_linear_996_115666)"/>
<path d="M152.147 195.086C148.575 201.276 144.362 209.139 139.494 219.884C137.743 223.751 133.668 232.377 129.091 242H92.064L134.938 144.054L166.126 148.276L175.181 144.054C181.644 152.779 180.682 164.817 175.797 171.132C171.514 176.672 163.894 176.629 159.901 182.073C155.684 187.825 152.147 195.086 152.147 195.086Z" fill="url(#paint4_linear_996_115666)"/>
<path d="M180.101 20.0086C180.101 22.0849 181.787 23.7711 183.864 23.7711C185.94 23.7711 187.626 22.0849 187.626 20.0086C187.626 17.9323 185.94 16.2461 183.864 16.2461C181.787 16.2461 180.101 17.9323 180.101 20.0086Z" fill="#EAEAEA"/>
<path d="M92.0596 175.992C92.0596 178.068 93.7458 179.754 95.8221 179.754C97.8984 179.754 99.5845 178.068 99.5845 175.992C99.5845 173.916 97.8984 172.229 95.8221 172.229C93.7458 172.229 92.0596 173.916 92.0596 175.992Z" fill="#EAEAEA"/>
<path d="M0 51.0496C0 53.1259 1.68618 54.8121 3.76249 54.8121C5.83879 54.8121 7.52498 53.1259 7.52498 51.0496C7.52498 48.9733 5.83879 47.2871 3.76249 47.2871C1.68618 47.2871 0 48.9733 0 51.0496Z" fill="#EAEAEA"/>
<path d="M17.3904 141.73H40.3208V118.8H17.3904L17.3904 141.73Z" fill="#EAEAEA"/>
<path d="M40.321 118.804H17.3906V141.734H40.321V118.804Z" fill="#EAEAEA"/>
<path d="M114.977 77.1743C113.204 72.1418 109.888 73.2168 109.064 75.2367C108.462 76.7192 110.443 81.3269 111.253 83.88C111.483 84.6039 110.712 85.2411 110.044 84.8727C108.895 84.2398 107.378 83.2732 106.737 82.2805L102.593 77.9155C102.385 81.2879 101.761 86.3595 103.971 89.1683C102.441 91.405 104.682 94.2269 106.043 95.8654C109.012 99.4502 111.895 102.48 111.895 102.48L121.683 97.1181C121.683 97.1181 123.846 91.8905 122.324 88.0803C120.803 84.2702 116.745 82.1982 114.973 77.17L114.977 77.1743Z" fill="url(#paint5_linear_996_115666)"/>
<path d="M102.354 130.422C103.642 110.495 104.24 100.508 104.24 100.508L122.805 94.8775L123.269 97.7557C123.269 97.7557 125.887 95.48 126.702 94.6607C131.891 89.4505 139.611 86.4856 157.747 86.9754C162.541 87.1054 166.412 87.2311 171.089 88.2671C180.166 90.2741 183.668 91.6915 203.248 108.181C209.113 113.118 219.187 126.104 212.68 133.842C209.36 137.791 206.23 140.756 206.23 140.756L197.379 130.643L183.85 123.148V153.538H127.816L128.332 149.789C128.332 149.789 123.828 152.06 118.583 152.529C107.274 153.538 101.574 142.346 102.341 130.413L102.354 130.422Z" fill="url(#paint6_linear_996_115666)"/>
<path d="M157.747 86.9751C139.611 86.4853 131.886 89.4458 126.702 94.6604C125.887 95.4797 123.269 97.7554 123.269 97.7554L122.805 94.8772L104.235 100.508C104.235 100.508 103.637 110.495 102.35 130.421C101.578 142.35 107.283 153.547 118.592 152.537C123.837 152.069 128.341 149.797 128.341 149.797C128.341 149.797 155.372 114.327 169.19 97.4606C183.009 80.5945 157.751 86.9794 157.751 86.9794L157.747 86.9751Z" fill="url(#paint7_linear_996_115666)"/>
<path d="M161.926 72.8568L176.352 69.7012C176.352 69.7012 172.026 79.2071 177.5 85.0155C184.999 92.974 188.229 105.861 177.747 113.122C173.031 116.39 165.324 117.066 160.14 114.53C152.091 110.594 151.453 100.872 150.612 93.039C149.941 86.7537 142.381 87.2392 142.381 87.2392L161.922 72.8525L161.926 72.8568Z" fill="#14336A"/>
<path d="M68.5096 17.8115H34.2614C31.4748 17.8115 29.2158 20.0705 29.2158 22.8571V47.6774C29.2158 50.4639 31.4748 52.7229 34.2614 52.7229H68.5096C71.2961 52.7229 73.5551 50.4639 73.5551 47.6774V22.8571C73.5551 20.0705 71.2961 17.8115 68.5096 17.8115Z" fill="#CED4DD"/>
<path d="M73.555 47.6772V36.5718C73.555 36.5718 66.793 45.7439 51.3832 36.6758C35.9778 27.6077 29.2114 36.342 29.2114 36.6758V47.6772C29.2114 50.4514 31.4828 52.7227 34.257 52.7227H68.5052C71.2793 52.7227 73.5507 50.4514 73.5507 47.6772H73.555Z" fill="white"/>
<path d="M67.7029 26.298C67.7029 28.2269 66.1381 29.7874 64.2135 29.7874C62.2889 29.7874 60.7241 28.2226 60.7241 26.298C60.7241 24.3734 62.2889 22.8086 64.2135 22.8086C66.1381 22.8086 67.7029 24.3734 67.7029 26.298Z" fill="white"/>
<path d="M50.3256 62.5495H33.0824C32.8049 62.5495 32.5752 62.3241 32.5752 62.0423C32.5752 61.7606 32.8006 61.5352 33.0824 61.5352H50.3256C50.6031 61.5352 50.8328 61.7606 50.8328 62.0423C50.8328 62.3241 50.6074 62.5495 50.3256 62.5495Z" fill="#CED4DD"/>
<path d="M50.3256 67.9372H33.0824C32.8049 67.9372 32.5752 67.7118 32.5752 67.43C32.5752 67.1483 32.8006 66.9229 33.0824 66.9229H50.3256C50.6031 66.9229 50.8328 67.1483 50.8328 67.43C50.8328 67.7118 50.6074 67.9372 50.3256 67.9372Z" fill="#CED4DD"/>
<path d="M50.3256 76.7458H33.0824C32.8049 76.7458 32.5752 76.5204 32.5752 76.2386C32.5752 75.9568 32.8006 75.7314 33.0824 75.7314H50.3256C50.6031 75.7314 50.8328 75.9568 50.8328 76.2386C50.8328 76.5204 50.6074 76.7458 50.3256 76.7458Z" fill="#CED4DD"/>
<path d="M50.3256 82.1335H33.0824C32.8049 82.1335 32.5752 81.908 32.5752 81.6263C32.5752 81.3445 32.8006 81.1191 33.0824 81.1191H50.3256C50.6031 81.1191 50.8328 81.3445 50.8328 81.6263C50.8328 81.908 50.6074 82.1335 50.3256 82.1335Z" fill="#CED4DD"/>
<path d="M98.6092 60.6417C98.3318 60.6417 98.1021 60.4163 98.1021 60.1345V17.8109C98.1021 17.5334 98.3275 17.3037 98.6092 17.3037C98.891 17.3037 99.1164 17.5291 99.1164 17.8109V60.1389C99.1164 60.4163 98.891 60.646 98.6092 60.646V60.6417Z" fill="#CED4DD"/>
<path d="M143.2 10.0779C143.07 10.0779 142.94 10.0303 142.844 9.93056C142.645 9.73117 142.645 9.41474 142.844 9.21534L148.345 3.71465C148.544 3.51959 148.861 3.51959 149.06 3.71465C149.26 3.91405 149.26 4.23048 149.06 4.42987L143.56 9.93056C143.46 10.0303 143.33 10.0779 143.204 10.0779H143.2Z" fill="#CED4DD"/>
<path d="M148.7 10.0779C148.57 10.0779 148.44 10.0303 148.345 9.93056L142.844 4.42987C142.645 4.23048 142.645 3.91405 142.844 3.71465C143.044 3.51959 143.36 3.51959 143.56 3.71465L149.06 9.21534C149.26 9.41474 149.26 9.73117 149.06 9.93056C148.961 10.0303 148.831 10.0779 148.705 10.0779H148.7Z" fill="#CED4DD"/>
</g>
<defs>
<linearGradient id="paint0_linear_996_115666" x1="101.045" y1="126.557" x2="237.969" y2="126.557" gradientUnits="userSpaceOnUse">
<stop stop-color="#58CFAA"/>
<stop offset="0.97" stop-color="#45A184"/>
</linearGradient>
<linearGradient id="paint1_linear_996_115666" x1="139.104" y1="73.2728" x2="166.347" y2="73.2728" gradientUnits="userSpaceOnUse">
<stop stop-color="#FFAA9D"/>
<stop offset="0.97" stop-color="#FF9F91"/>
</linearGradient>
<linearGradient id="paint2_linear_996_115666" x1="151.08" y1="68.2792" x2="157.47" y2="68.2792" gradientUnits="userSpaceOnUse">
<stop stop-color="#FFAA9D"/>
<stop offset="0.97" stop-color="#FF9F91"/>
</linearGradient>
<linearGradient id="paint3_linear_996_115666" x1="92.0596" y1="193.027" x2="194.015" y2="193.027" gradientUnits="userSpaceOnUse">
<stop stop-color="#14336D"/>
<stop offset="0.97" stop-color="#0E2253"/>
</linearGradient>
<linearGradient id="paint4_linear_996_115666" x1="1.24596e-05" y1="-0.000203019" x2="179.741" y2="-0.000203019" gradientUnits="userSpaceOnUse">
<stop stop-color="#14336D"/>
<stop offset="0.97" stop-color="#0E2253"/>
</linearGradient>
<linearGradient id="paint5_linear_996_115666" x1="102.354" y1="88.0153" x2="122.875" y2="88.0153" gradientUnits="userSpaceOnUse">
<stop stop-color="#FFAA9D"/>
<stop offset="0.97" stop-color="#FF9F91"/>
</linearGradient>
<linearGradient id="paint6_linear_996_115666" x1="102.285" y1="120.24" x2="214.8" y2="120.24" gradientUnits="userSpaceOnUse">
<stop stop-color="#3162DF"/>
<stop offset="0.96" stop-color="#173DB8"/>
</linearGradient>
<linearGradient id="paint7_linear_996_115666" x1="100.291" y1="141.145" x2="163.278" y2="78.1584" gradientUnits="userSpaceOnUse">
<stop stop-color="#3162DF"/>
<stop offset="0.96" stop-color="#173DB8"/>
</linearGradient>
<clipPath id="clip0_996_115666">
<rect width="237.964" height="242" fill="white"/>
</clipPath>
</defs>
</svg>
