<svg width="138" height="242" viewBox="0 0 138 242" fill="none" xmlns="http://www.w3.org/2000/svg">
<g clip-path="url(#clip0_996_115142)">
<path d="M92.0639 184.83C92.0639 184.83 88.7709 208.897 91.4621 213.835C94.1533 218.776 114.172 181.333 114.172 181.333L103.684 173.26L92.0678 184.83H92.0639Z" fill="url(#paint0_linear_996_115142)"/>
<path d="M105.16 174.371L108.564 176.905L90.8374 196.809C90.8374 196.809 91.3128 190.162 91.5888 188.341L105.16 174.375V174.371Z" fill="url(#paint1_linear_996_115142)"/>
<path d="M50.7222 51.6844C47.5595 44.6574 40.4328 47.3179 40.4328 47.3179C40.4328 47.3179 36.3654 41.5944 34.1304 42.7406C31.8954 43.883 33.885 47.1838 33.885 47.1838C30.0974 44.7878 25.3744 43.0013 24.3815 44.4581C23.8218 45.2823 24.1132 46.1525 24.4774 46.7544C23.0589 46.4094 21.8322 46.5397 21.3491 47.8815C20.3371 50.703 24.4544 51.3202 26.7239 51.4467C22.204 51.4314 21.4258 52.3016 21.6137 53.9769C21.8207 55.8132 25.5738 56.4074 28.1845 56.7448C30.7951 57.0821 36.8676 58.0635 36.8676 58.0635L39.6278 67.2987L55.0388 63.2312C55.0388 63.2312 53.8849 58.7152 50.7222 51.6844Z" fill="url(#paint2_linear_996_115142)"/>
<path d="M47.1456 222.651C47.1456 222.651 23.5191 228.287 19.8848 232.584C16.2544 236.882 58.401 242 58.401 242L62.135 229.299L47.1456 222.655V222.651Z" fill="url(#paint3_linear_996_115142)"/>
<path d="M72.2594 100.524C72.2594 100.524 53.1642 118.795 47.7972 124.128C46.9231 124.994 46.003 126.213 45.0906 127.601C40.0916 135.219 40.5517 145.22 46.2292 152.343C46.3941 152.55 46.5359 152.723 46.6548 152.853L85.999 195.126L107.494 171.795L86.6661 151.408L80.2486 143.948L96.2386 129.391L107.31 120.133L72.2594 100.524Z" fill="url(#paint4_linear_996_115142)"/>
<path d="M115.272 109.212L85.1173 94.7666L73.7085 123.277L35.9092 221.298L69.4992 234.651C69.4992 234.651 102.441 158.017 112.673 132.792C116.53 123.289 116.929 115.434 115.276 109.212H115.272Z" fill="url(#paint5_linear_996_115142)"/>
<path d="M6.73181 68.4987C6.73181 70.358 5.2252 71.8646 3.3659 71.8646C1.50661 71.8646 0 70.358 0 68.4987C0 66.6394 1.50661 65.1328 3.3659 65.1328C5.2252 65.1328 6.73181 66.6394 6.73181 68.4987Z" fill="#EAEAEA"/>
<path d="M31.1136 165.976C31.1136 167.836 29.607 169.342 27.7477 169.342C25.8884 169.342 24.3818 167.836 24.3818 165.976C24.3818 164.117 25.8884 162.61 27.7477 162.61C29.607 162.61 31.1136 164.117 31.1136 165.976Z" fill="#EAEAEA"/>
<path d="M137.266 148.678C137.266 150.538 135.759 152.044 133.9 152.044C132.041 152.044 130.534 150.538 130.534 148.678C130.534 146.819 132.041 145.312 133.9 145.312C135.759 145.312 137.266 146.819 137.266 148.678Z" fill="#EAEAEA"/>
<path d="M32.1523 64.4545L54.138 56.7413L59.0565 67.0384C59.0565 67.0384 60.3523 51.428 83.0817 49.4652L97.8947 49.2428C97.8947 49.2428 115.92 48.4684 123.469 60.9698C128.314 68.9935 133.781 84.1823 137.262 95.6064C139.466 102.844 131.841 117.995 115.272 109.208L64.2089 107.602V102.112C64.2089 102.112 51.2321 111.32 44.301 100.904C37.3698 90.4885 32.1484 64.4545 32.1484 64.4545H32.1523Z" fill="url(#paint6_linear_996_115142)"/>
<path d="M97.8947 49.2468L83.0817 49.4691C80.9924 49.6493 79.0871 49.9445 77.3428 50.3355C79.0986 53.2452 82.9552 57.3625 90.722 57.3625C98.4889 57.3625 103.354 53.0766 105.915 49.9943C101.372 49.1011 97.8909 49.2506 97.8909 49.2506L97.8947 49.2468Z" fill="url(#paint7_linear_996_115142)"/>
<path d="M82.5603 25.306C82.5603 27.2305 81 28.7908 79.0756 28.7908C77.1511 28.7908 75.5908 27.2305 75.5908 25.306C75.5908 23.3816 77.1511 21.8213 79.0756 21.8213C81 21.8213 82.5603 23.3816 82.5603 25.306Z" fill="url(#paint8_linear_996_115142)"/>
<path d="M103.224 25.2562C105.175 32.1605 101.161 39.337 94.2608 41.2921C87.3565 43.2434 80.18 39.2335 78.2249 32.3292C76.2736 25.4249 80.2835 18.2484 87.1878 16.2932C94.0921 14.3419 101.269 18.3519 103.224 25.2562Z" fill="url(#paint9_linear_996_115142)"/>
<path d="M98.121 51.0637L97.3466 39.973C92.5431 38.7885 92.3399 32.4132 92.3399 32.4132C92.3399 32.4132 88.284 30.0057 88.974 22.1736L81.4947 20.6172C81.4947 20.6172 78.3664 23.1934 77.9946 25.6775C77.8297 26.7855 77.6611 28.1004 77.5154 29.6262C76.9135 35.8826 75.1155 43.7875 83.1201 44.7535L83.1048 50.5615C83.1048 50.5615 83.8715 52.4936 89.7944 52.9766C95.7135 53.4597 98.1248 51.0713 98.1248 51.0713L98.121 51.0637Z" fill="url(#paint10_linear_996_115142)"/>
<path d="M101.82 19.0603C101.617 19.0603 101.418 19.0794 101.222 19.1063C101.445 18.4967 101.571 17.8374 101.571 17.1511C101.571 13.9731 98.995 11.3931 95.8132 11.3931C94.318 11.3931 92.9571 11.9681 91.9335 12.9035C91.2435 11.4199 89.7484 10.3887 88.0041 10.3887C85.9301 10.3887 84.2012 11.8454 83.7756 13.7891C83.0664 13.4747 82.2844 13.2984 81.4563 13.2984C78.2783 13.2984 75.6982 15.8746 75.6982 19.0564C75.6982 22.2383 78.2744 24.8145 81.4563 24.8145C82.7482 24.8145 83.9367 24.3852 84.8951 23.6683C85.3743 25.5391 87.0687 26.923 89.089 26.923C91.4812 26.923 93.421 24.9832 93.421 22.591C93.421 22.5182 93.4133 22.4492 93.4095 22.3802C94.1417 22.7175 94.9544 22.9092 95.8132 22.9092C96.4227 22.9092 97.0054 22.8134 97.5574 22.637C97.5153 22.8824 97.4884 23.1354 97.4884 23.3923C97.4884 25.7844 99.4282 27.7242 101.82 27.7242C104.213 27.7242 106.152 25.7844 106.152 23.3923C106.152 21.0001 104.213 19.0603 101.82 19.0603Z" fill="url(#paint11_linear_996_115142)"/>
<path d="M12.0721 0H47.4946C50.4427 0 52.8348 2.39217 52.8348 5.34021V29.2197C52.8348 32.1678 50.4427 34.5599 47.4946 34.5599H12.0721C9.1241 34.5599 6.73193 32.1678 6.73193 29.2197V5.34021C6.73193 2.39217 9.1241 0 12.0721 0Z" fill="#EAEAEA"/>
<path d="M19.3254 23.5882C19.2104 23.5882 19.0954 23.5422 19.0072 23.4541L13.9047 18.3515C13.7284 18.1752 13.7284 17.8877 13.9047 17.7113L19.3178 12.2983C19.4941 12.1219 19.7816 12.1219 19.958 12.2983C20.1343 12.4746 20.1343 12.7621 19.958 12.9385L14.8631 18.0333L19.6475 22.8177C19.8238 22.994 19.8238 23.2815 19.6475 23.4579C19.5593 23.5461 19.4443 23.5921 19.3293 23.5921L19.3254 23.5882Z" fill="url(#paint12_linear_996_115142)"/>
<path d="M39.9348 23.5882C39.8198 23.5882 39.7048 23.5422 39.6166 23.454C39.4403 23.2776 39.4403 22.9901 39.6166 22.8138L44.7115 17.7189L39.9272 12.9346C39.7508 12.7582 39.7508 12.4707 39.9272 12.2944C40.1035 12.118 40.391 12.118 40.5674 12.2944L45.6699 17.3969C45.7542 17.4812 45.8041 17.5962 45.8041 17.7151C45.8041 17.8339 45.7581 17.9489 45.6699 18.0333L40.2568 23.4463C40.1687 23.5345 40.0537 23.5805 39.9387 23.5805L39.9348 23.5882Z" fill="url(#paint13_linear_996_115142)"/>
<path d="M26.0455 26.1565C25.988 26.1565 25.9267 26.145 25.8692 26.1182C25.6392 26.0185 25.5318 25.754 25.6315 25.524L33.107 8.05425C33.2067 7.82423 33.4712 7.71689 33.7012 7.81656C33.9313 7.91624 34.0386 8.18076 33.9389 8.41077L26.4634 25.8805C26.3906 26.053 26.2219 26.1565 26.0494 26.1565H26.0455Z" fill="url(#paint14_linear_996_115142)"/>
<path d="M101.82 19.0603C101.617 19.0603 101.418 19.0794 101.222 19.1063C101.445 18.4967 101.571 17.8374 101.571 17.1511C101.571 13.9731 98.995 11.3931 95.8132 11.3931C94.318 11.3931 92.9571 11.9681 91.9335 12.9035C91.2435 11.4199 89.7484 10.3887 88.0041 10.3887C85.9301 10.3887 84.2012 11.8454 83.7756 13.7891C83.0664 13.4747 82.2844 13.2984 81.4563 13.2984C78.2783 13.2984 75.6982 15.8746 75.6982 19.0564C75.6982 22.2383 78.2744 24.8145 81.4563 24.8145C82.7482 24.8145 83.9367 24.3852 84.8951 23.6683C85.3743 25.5391 87.0687 26.923 89.089 26.923C91.4812 26.923 93.421 24.9832 93.421 22.591C93.421 22.5182 93.4133 22.4492 93.4095 22.3802C94.1417 22.7175 94.9544 22.9092 95.8132 22.9092C96.4227 22.9092 97.0054 22.8134 97.5574 22.637C97.5153 22.8824 97.4884 23.1354 97.4884 23.3923C97.4884 25.7844 99.4282 27.7242 101.82 27.7242C104.213 27.7242 106.152 25.7844 106.152 23.3923C106.152 21.0001 104.213 19.0603 101.82 19.0603Z" fill="url(#paint15_linear_996_115142)"/>
<path d="M86.283 68.5488H49.6453C46.9055 68.5488 44.6846 70.7698 44.6846 73.5095V95.7291C44.6846 98.4688 46.9055 100.69 49.6453 100.69H86.283C89.0227 100.69 91.2437 98.4688 91.2437 95.7291V73.5095C91.2437 70.7698 89.0227 68.5488 86.283 68.5488Z" fill="#EAEAEA"/>
<path d="M101.403 80.2217C101.403 80.2217 97.4847 75.5178 91.236 74.0879V78.9144C91.236 79.5891 90.6226 80.1028 89.9594 79.984C88.0464 79.6428 84.4888 79.0064 82.8787 78.7036C80.6169 78.278 78.7346 78.2397 78.4317 79.7463C78.1864 80.9769 79.2329 81.7551 82.3458 82.5563C82.3458 82.5563 78.0407 81.5404 77.5155 83.8367C76.9864 86.1331 81.9586 86.85 81.9586 86.85C81.9586 86.85 78.1787 86.4934 77.918 87.9809C77.665 89.4338 78.4739 90.327 82.457 91.2126C82.1426 91.2126 81.7669 91.3813 81.7133 92.1748C81.5753 94.2565 89.9402 94.7472 91.2973 94.774C92.6544 94.797 96.4535 95.0999 96.4535 95.0999L100.743 97.1317L106.739 82.0426L101.403 80.2293V80.2217Z" fill="url(#paint16_linear_996_115142)"/>
<path d="M106.739 82.0351L100.743 97.1241C100.743 97.1241 114.51 113.62 126.432 111.719C138.355 109.821 138.04 96.8405 137.933 96.4188C137.826 95.9971 135.085 88.6097 135.085 88.6097L106.739 82.0312V82.0351Z" fill="url(#paint17_linear_996_115142)"/>
<path d="M61.5026 231.473L42.3422 223.855L37.7266 225.147L60.4905 234.881L61.5026 231.473Z" fill="url(#paint18_linear_996_115142)"/>
</g>
<defs>
<linearGradient id="paint0_linear_996_115142" x1="112.451" y1="179.612" x2="84.8146" y2="207.248" gradientUnits="userSpaceOnUse">
<stop stop-color="#14336D"/>
<stop offset="0.97" stop-color="#0E2253"/>
</linearGradient>
<linearGradient id="paint1_linear_996_115142" x1="90.8374" y1="185.588" x2="108.564" y2="185.588" gradientUnits="userSpaceOnUse">
<stop stop-color="#FFAA9D"/>
<stop offset="0.97" stop-color="#FF9F91"/>
</linearGradient>
<linearGradient id="paint2_linear_996_115142" x1="21.192" y1="54.943" x2="55.0388" y2="54.943" gradientUnits="userSpaceOnUse">
<stop stop-color="#FFAA9D"/>
<stop offset="0.97" stop-color="#FF9F91"/>
</linearGradient>
<linearGradient id="paint3_linear_996_115142" x1="54.6326" y1="221.793" x2="31.309" y2="245.116" gradientUnits="userSpaceOnUse">
<stop stop-color="#14336D"/>
<stop offset="0.97" stop-color="#0E2253"/>
</linearGradient>
<linearGradient id="paint4_linear_996_115142" x1="55.4759" y1="116.449" x2="110.074" y2="171.051" gradientUnits="userSpaceOnUse">
<stop offset="0.16" stop-color="#14336D"/>
<stop offset="0.97" stop-color="#0E2253"/>
</linearGradient>
<linearGradient id="paint5_linear_996_115142" x1="104.117" y1="214.663" x2="47.4483" y2="116.515" gradientUnits="userSpaceOnUse">
<stop stop-color="#14336D"/>
<stop offset="0.97" stop-color="#0E2253"/>
</linearGradient>
<linearGradient id="paint6_linear_996_115142" x1="32.1523" y1="80.5557" x2="137.634" y2="80.5557" gradientUnits="userSpaceOnUse">
<stop offset="0.34" stop-color="#3162DF"/>
<stop offset="0.96" stop-color="#173DB8"/>
</linearGradient>
<linearGradient id="paint7_linear_996_115142" x1="77.3428" y1="53.2989" x2="105.918" y2="53.2989" gradientUnits="userSpaceOnUse">
<stop stop-color="#FFAA9D"/>
<stop offset="0.97" stop-color="#FF9F91"/>
</linearGradient>
<linearGradient id="paint8_linear_996_115142" x1="75.587" y1="25.306" x2="82.5603" y2="25.306" gradientUnits="userSpaceOnUse">
<stop stop-color="#143383"/>
<stop offset="0.97" stop-color="#0E2253"/>
</linearGradient>
<linearGradient id="paint9_linear_996_115142" x1="77.7303" y1="28.7946" x2="103.718" y2="28.7946" gradientUnits="userSpaceOnUse">
<stop stop-color="#143383"/>
<stop offset="0.97" stop-color="#0E2253"/>
</linearGradient>
<linearGradient id="paint10_linear_996_115142" x1="76.9135" y1="36.8257" x2="98.121" y2="36.8257" gradientUnits="userSpaceOnUse">
<stop stop-color="#FFAA9D"/>
<stop offset="0.97" stop-color="#FF9F91"/>
</linearGradient>
<linearGradient id="paint11_linear_996_115142" x1="75.7021" y1="19.0603" x2="106.156" y2="19.0603" gradientUnits="userSpaceOnUse">
<stop stop-color="#143383"/>
<stop offset="0.97" stop-color="#0E2253"/>
</linearGradient>
<linearGradient id="paint12_linear_996_115142" x1="13.7667" y1="17.88" x2="20.0845" y2="17.88" gradientUnits="userSpaceOnUse">
<stop stop-color="#14336D"/>
<stop offset="0.97" stop-color="#0E2253"/>
</linearGradient>
<linearGradient id="paint13_linear_996_115142" x1="39.4825" y1="17.8799" x2="45.7964" y2="17.8799" gradientUnits="userSpaceOnUse">
<stop stop-color="#14336D"/>
<stop offset="0.97" stop-color="#0E2253"/>
</linearGradient>
<linearGradient id="paint14_linear_996_115142" x1="25.5932" y1="16.9712" x2="33.9734" y2="16.9712" gradientUnits="userSpaceOnUse">
<stop stop-color="#14336D"/>
<stop offset="0.97" stop-color="#0E2253"/>
</linearGradient>
<linearGradient id="paint15_linear_996_115142" x1="75.7021" y1="19.0603" x2="106.156" y2="19.0603" gradientUnits="userSpaceOnUse">
<stop stop-color="#14336D"/>
<stop offset="0.97" stop-color="#0E2253"/>
</linearGradient>
<linearGradient id="paint16_linear_996_115142" x1="77.4771" y1="85.6079" x2="106.739" y2="85.6079" gradientUnits="userSpaceOnUse">
<stop stop-color="#FFAA9D"/>
<stop offset="0.97" stop-color="#FF9F91"/>
</linearGradient>
<linearGradient id="paint17_linear_996_115142" x1="103.753" y1="104.335" x2="136.457" y2="86.5702" gradientUnits="userSpaceOnUse">
<stop stop-color="#3162DF"/>
<stop offset="0.1" stop-color="#2551CD"/>
<stop offset="0.23" stop-color="#1A42BD"/>
<stop offset="0.33" stop-color="#173DB8"/>
</linearGradient>
<linearGradient id="paint18_linear_996_115142" x1="37.7266" y1="229.368" x2="61.5026" y2="229.368" gradientUnits="userSpaceOnUse">
<stop stop-color="#FFAA9D"/>
<stop offset="0.97" stop-color="#FF9F91"/>
</linearGradient>
<clipPath id="clip0_996_115142">
<rect width="137.96" height="242" fill="white"/>
</clipPath>
</defs>
</svg>
