<svg width="15" height="15" viewBox="0 0 19 19" fill="none" xmlns="http://www.w3.org/2000/svg">
<path d="M9.5 0C4.25322 0 0 4.25337 0 9.5C0 14.7469 4.25322 19 9.5 19C14.7468 19 19 14.7469 19 9.5C19 4.25337 14.7468 0 9.5 0ZM9.5 4.75C10.1559 4.75 10.6875 5.2817 10.6875 5.9375C10.6875 6.59359 10.1559 7.125 9.5 7.125C8.84413 7.125 8.3125 6.59359 8.3125 5.9375C8.3125 5.2817 8.84413 4.75 9.5 4.75ZM11.2812 14.25H7.71875C7.39085 14.25 7.125 13.9844 7.125 13.6562C7.125 13.3284 7.39085 13.0625 7.71875 13.0625H8.3125V9.5H7.71875C7.39085 9.5 7.125 9.23445 7.125 8.90625C7.125 8.57835 7.39085 8.3125 7.71875 8.3125H10.0938C10.4216 8.3125 10.6875 8.57835 10.6875 8.90625V13.0625H11.2812C11.6091 13.0625 11.875 13.3284 11.875 13.6562C11.875 13.9844 11.6091 14.25 11.2812 14.25Z" fill="#222222"/>
</svg>
