<svg width="18" height="18" viewBox="0 0 21 20" fill="none" xmlns="http://www.w3.org/2000/svg">
<path fill-rule="evenodd" clip-rule="evenodd" d="M15.4946 9.2899C15.3987 9.38254 15.3222 9.49337 15.2696 9.6159C15.2169 9.73843 15.1892 9.87021 15.1881 10.0036C15.1869 10.1369 15.2123 10.2692 15.2628 10.3926C15.3133 10.516 15.3879 10.6281 15.4822 10.7224C15.5765 10.8167 15.6886 10.8913 15.8121 10.9418C15.9355 10.9923 16.0677 11.0177 16.2011 11.0166C16.3344 11.0154 16.4662 10.9877 16.5888 10.9351C16.7113 10.8824 16.8221 10.8059 16.9147 10.71L18.4654 9.15934C19.4573 8.14444 20.0091 6.77936 20.0009 5.36026C19.9928 3.94116 19.4254 2.5825 18.422 1.57903C17.4185 0.575558 16.0598 0.00821647 14.6407 8.57056e-05C13.2216 -0.00804506 11.8566 0.543691 10.8417 1.5356L9.29101 3.08626C9.19509 3.1789 9.11858 3.28972 9.06594 3.41225C9.0133 3.53478 8.9856 3.66657 8.98444 3.79992C8.98328 3.93327 9.00869 4.06552 9.05919 4.18895C9.10969 4.31237 9.18426 4.42451 9.27856 4.51881C9.37286 4.6131 9.48499 4.68768 9.60842 4.73817C9.73184 4.78867 9.86409 4.81408 9.99744 4.81292C10.1308 4.81176 10.2626 4.78406 10.3851 4.73142C10.5076 4.67879 10.6185 4.60228 10.7111 4.50636L12.2618 2.9557C12.5752 2.63878 12.9483 2.38695 13.3594 2.21467C13.7705 2.0424 14.2116 1.95309 14.6574 1.95187C15.1031 1.95065 15.5447 2.03755 15.9568 2.20757C16.3688 2.37759 16.7432 2.62738 17.0584 2.94258C17.3736 3.25777 17.6234 3.63216 17.7934 4.04422C17.9635 4.45628 18.0504 4.89788 18.0491 5.34364C18.0479 5.78939 17.9586 6.23051 17.7863 6.64163C17.6141 7.05275 17.3622 7.42577 17.0453 7.73924L15.4946 9.2899ZM4.50639 10.7111C4.60231 10.6184 4.67882 10.5076 4.73145 10.3851C4.78409 10.2626 4.81179 10.1308 4.81295 9.99741C4.81411 9.86406 4.7887 9.73181 4.7382 9.60839C4.68771 9.48496 4.61313 9.37283 4.51883 9.27853C4.42454 9.18423 4.3124 9.10966 4.18898 9.05916C4.06555 9.00866 3.9333 8.98325 3.79995 8.98441C3.6666 8.98557 3.53481 9.01327 3.41228 9.06591C3.28975 9.11854 3.17893 9.19506 3.08629 9.29098L1.53563 10.8416C0.543721 11.8565 -0.00801487 13.2216 0.000115891 14.6407C0.00824665 16.0598 0.575589 17.4185 1.57906 18.4219C2.58253 19.4254 3.94119 19.9928 5.36029 20.0009C6.77939 20.009 8.14447 19.4573 9.15937 18.4654L10.71 16.9147C10.893 16.7253 10.9942 16.4716 10.9919 16.2083C10.9896 15.945 10.884 15.6931 10.6978 15.5069C10.5116 15.3206 10.2597 15.215 9.99636 15.2127C9.73304 15.2104 9.47935 15.3117 9.28993 15.4946L7.73927 17.0453C7.10374 17.6739 6.24522 18.0254 5.35133 18.0229C4.45744 18.0205 3.60086 17.6643 2.96878 17.0322C2.3367 16.4002 1.98051 15.5436 1.97807 14.6497C1.97562 13.7558 2.32711 12.8973 2.95573 12.2617L4.50639 10.7111ZM6.89727 14.1112C6.63096 14.1112 6.37556 14.0055 6.18722 13.8172C6.09324 13.7238 6.01865 13.6128 5.96775 13.4905C5.91686 13.3682 5.89065 13.2371 5.89065 13.1046C5.89065 12.9722 5.91686 12.841 5.96775 12.7187C6.01865 12.5964 6.09324 12.4854 6.18722 12.3921L12.3949 6.18941C12.4875 6.09349 12.5983 6.01698 12.7209 5.96435C12.8434 5.91171 12.9752 5.88401 13.1085 5.88285C13.2419 5.88169 13.3741 5.9071 13.4976 5.9576C13.621 6.00809 13.7331 6.08267 13.8274 6.17697C13.9217 6.27126 13.9963 6.3834 14.0468 6.50682C14.0973 6.63025 14.1227 6.7625 14.1215 6.89585C14.1204 7.0292 14.0927 7.16099 14.04 7.28352C13.9874 7.40605 13.9109 7.51687 13.815 7.60951L7.60732 13.8172C7.41898 14.0055 7.16358 14.1112 6.89727 14.1112Z" fill="currentcolor"/>
</svg>
