<svg width="24" height="16" viewBox="0 0 24 16" fill="none" xmlns="http://www.w3.org/2000/svg">
<path d="M23.875 7.375C23.9583 7.56944 24 7.77778 24 8C24 8.22222 23.9583 8.43056 23.875 8.625C22.7083 10.8472 21.0694 12.6389 18.9583 14C16.8472 15.3333 14.5278 16 12 16C9.47222 16 7.15278 15.3333 5.04167 14C2.93056 12.6389 1.29167 10.8472 0.125 8.625C0.0416667 8.43056 0 8.22222 0 8C0 7.77778 0.0416667 7.56944 0.125 7.375C1.29167 5.15278 2.93056 3.375 5.04167 2.04167C7.15278 0.680556 9.47222 0 12 0C14.5278 0 16.8472 0.680556 18.9583 2.04167C21.0694 3.375 22.7083 5.15278 23.875 7.375ZM12 14C13.6667 14 15.0833 13.4167 16.25 12.25C17.4167 11.0833 18 9.66667 18 8C18 6.33333 17.4167 4.91667 16.25 3.75C15.0833 2.58333 13.6667 2 12 2C10.3333 2 8.91667 2.58333 7.75 3.75C6.58333 4.91667 6 6.33333 6 8C6 9.66667 6.58333 11.0833 7.75 12.25C8.91667 13.4167 10.3333 14 12 14ZM12 4C13.1111 4 14.0556 4.38889 14.8333 5.16667C15.6111 5.94444 16 6.88889 16 8C16 9.08333 15.6111 10.0278 14.8333 10.8333C14.0556 11.6111 13.1111 12 12 12C10.9167 12 9.97222 11.6111 9.16667 10.8333C8.38889 10.0278 8 9.08333 8 8C8 7.63889 8.05556 7.29167 8.16667 6.95833C8.5 7.20833 8.88889 7.33333 9.33333 7.33333C9.88889 7.33333 10.3611 7.13889 10.75 6.75C11.1389 6.36111 11.3333 5.88889 11.3333 5.33333C11.3333 4.88889 11.2083 4.5 10.9583 4.16667C11.2917 4.05556 11.6389 4 12 4Z" fill="currentcolor"/>
</svg>
