<svg width="19" height="18" viewBox="0 0 19 18" fill="none" xmlns="http://www.w3.org/2000/svg">
<path d="M17.5913 15.0762L10.9713 8.67623L17.6013 2.27623C17.728 2.15573 17.829 2.0107 17.898 1.84996C17.9669 1.68923 18.0025 1.51614 18.0025 1.34123C18.0025 1.16632 17.9669 0.993238 17.898 0.832502C17.829 0.671767 17.728 0.526739 17.6013 0.406233C17.3305 0.151704 16.9729 0.00999999 16.6013 0.00999999C16.2296 0.00999999 15.872 0.151704 15.6013 0.406233L9.00125 6.77623L2.40125 0.396233C2.13049 0.141704 1.77286 0 1.40125 0C1.02964 0 0.672011 0.141704 0.401251 0.396233C0.275468 0.518481 0.17531 0.664572 0.10663 0.825969C0.0379507 0.987366 0.00212641 1.16083 0.00125089 1.33623C0.000992191 1.51181 0.0363014 1.68561 0.105048 1.84717C0.173796 2.00873 0.274556 2.15468 0.401251 2.27623L7.03125 8.67623L0.401251 15.0762C0.274474 15.1967 0.173528 15.3418 0.104549 15.5025C0.0355706 15.6632 0 15.8363 0 16.0112C0 16.1861 0.0355706 16.3592 0.104549 16.52C0.173528 16.6807 0.274474 16.8257 0.401251 16.9462C0.675245 17.1943 1.03165 17.3317 1.40125 17.3317C1.77085 17.3317 2.12726 17.1943 2.40125 16.9462L9.00125 10.5762L15.6013 16.9462C15.8731 17.1986 16.2303 17.3388 16.6013 17.3388C16.9722 17.3388 17.3294 17.1986 17.6013 16.9462C17.7307 16.8273 17.834 16.6828 17.9046 16.5218C17.9753 16.3609 18.0118 16.187 18.0118 16.0112C18.0118 15.8355 17.9753 15.6616 17.9046 15.5007C17.834 15.3397 17.7307 15.1952 17.6013 15.0762H17.5913Z" fill="currentcolor"/>
</svg>
