<svg width="15" height="15" viewBox="0 0 15 15" fill="none" xmlns="http://www.w3.org/2000/svg">
<path fill-rule="evenodd" clip-rule="evenodd" d="M7.92 12.67H9.5C9.70952 12.67 9.91046 12.7532 10.0586 12.9014C10.2068 13.0495 10.29 13.2505 10.29 13.46C10.29 13.6695 10.2068 13.8705 10.0586 14.0186C9.91046 14.1668 9.70952 14.25 9.5 14.25H4.75C4.54048 14.25 4.33954 14.1668 4.19139 14.0186C4.04323 13.8705 3.96 13.6695 3.96 13.46C3.96 13.2505 4.04323 13.0495 4.19139 12.9014C4.33954 12.7532 4.54048 12.67 4.75 12.67H6.33V1.58H1.58V3.17C1.58 3.37952 1.49677 3.58046 1.34861 3.72861C1.20046 3.87677 0.999521 3.96 0.79 3.96C0.580479 3.96 0.379539 3.87677 0.231386 3.72861C0.0832319 3.58046 0 3.37952 0 3.17V0.79C0 0.580479 0.0832319 0.379539 0.231386 0.231386C0.379539 0.0832319 0.580479 0 0.79 0H13.5C13.7095 0 13.9105 0.0832319 14.0586 0.231386C14.2068 0.379539 14.29 0.580479 14.29 0.79V3.17C14.29 3.37952 14.2068 3.58046 14.0586 3.72861C13.9105 3.87677 13.7095 3.96 13.5 3.96C13.2905 3.96 13.0895 3.87677 12.9414 3.72861C12.7932 3.58046 12.71 3.37952 12.71 3.17V1.58H7.92V12.67Z" fill="#333333"/>
</svg>
