<svg width="28" height="28" viewBox="0 0 28 28" fill="none" xmlns="http://www.w3.org/2000/svg">
<path fill-rule="evenodd" clip-rule="evenodd" d="M18.9 22.75H22.25C22.53 22.75 22.75 22.52 22.75 22.25V18.9C22.75 18.62 22.52 18.4 22.25 18.4H21.08V9.35H22.25C22.53 9.35 22.75 9.12 22.75 8.85V5.5C22.75 5.22 22.52 5 22.25 5H18.9C18.62 5 18.4 5.23 18.4 5.5V6.67H9.35V5.5C9.35 5.22 9.12 5 8.85 5H5.5C5.23 5 5 5.23 5 5.5V8.85C5 9.13 5.23 9.35 5.5 9.35H6.67V18.39H5.5C5.22 18.39 5 18.62 5 18.89V22.24C5 22.52 5.23 22.74 5.5 22.74H8.85C9.13 22.74 9.35 22.51 9.35 22.24V21.07H18.39V22.24C18.39 22.52 18.62 22.74 18.89 22.74L18.9 22.75ZM21.75 19.4V21.74H19.41V20.6C19.41 20.6 19.41 20.58 19.41 20.56C19.41 20.54 19.41 20.54 19.41 20.53V19.39H21.75V19.4ZM19.41 7.22C19.41 7.22 19.41 7.18 19.41 7.17C19.41 7.16 19.41 7.15 19.41 7.13V5.99H21.75V8.33H19.41V7.21V7.22ZM6.01 8.35V6.01H8.35V8.35H6.01ZM8.35 21.75H6.01V19.41H8.35V21.75ZM9.36 20.08V18.91C9.36 18.63 9.13 18.41 8.86 18.41H7.69V9.35H8.86C9.14 9.35 9.36 9.12 9.36 8.85V7.68H18.4V8.85C18.4 9.13 18.63 9.35 18.9 9.35H20.07V18.39H18.9C18.62 18.39 18.4 18.62 18.4 18.89V20.06H9.35L9.36 20.08Z" fill="#444444"/>
</svg>
