<svg width="12" height="12" viewBox="0 0 12 12" fill="none" xmlns="http://www.w3.org/2000/svg">
<path d="M3.91875 0.498484C4.04531 0.257609 4.30547 0.105469 4.58906 0.105469H7.41094C7.69453 0.105469 7.95469 0.257609 8.08125 0.498484L8.25 0.816406H10.5C10.9148 0.816406 11.25 1.13477 11.25 1.52734C11.25 1.91991 10.9148 2.23828 10.5 2.23828H1.5C1.08586 2.23828 0.75 1.91991 0.75 1.52734C0.75 1.13477 1.08586 0.816406 1.5 0.816406H3.75L3.91875 0.498484ZM1.47891 2.94922H10.5V10.0586C10.5 10.8428 9.82734 11.4805 9 11.4805H2.97891C2.17148 11.4805 1.47891 10.8428 1.47891 10.0586V2.94922ZM3.35391 4.72656V9.70312C3.35391 9.89863 3.54375 10.0586 3.72891 10.0586C3.95625 10.0586 4.10391 9.89863 4.10391 9.70312V4.72656C4.10391 4.53105 3.95625 4.37109 3.72891 4.37109C3.54375 4.37109 3.35391 4.53105 3.35391 4.72656ZM5.60391 4.72656V9.70312C5.60391 9.89863 5.79375 10.0586 5.97891 10.0586C6.20625 10.0586 6.375 9.89863 6.375 9.70312V4.72656C6.375 4.53105 6.20625 4.37109 5.97891 4.37109C5.79375 4.37109 5.60391 4.53105 5.60391 4.72656ZM7.875 4.72656V9.70312C7.875 9.89863 8.04375 10.0586 8.25 10.0586C8.45625 10.0586 8.625 9.89863 8.625 9.70312V4.72656C8.625 4.53105 8.45625 4.37109 8.25 4.37109C8.04375 4.37109 7.875 4.53105 7.875 4.72656Z" fill="white"/>
</svg>
