<svg width="22" height="18" viewBox="0 0 22 18" fill="none" xmlns="http://www.w3.org/2000/svg">
<path d="M4.77332 8.72599H16.9231C17.4777 8.75248 18.032 8.66612 18.5523 8.47212C19.0726 8.27812 19.5481 7.98052 19.95 7.59736C20.3519 7.2142 20.6718 6.75345 20.8904 6.24301C21.109 5.73257 21.2217 5.18306 21.2217 4.62778C21.2217 4.0725 21.109 3.523 20.8904 3.01256C20.6718 2.50212 20.3519 2.04136 19.95 1.6582C19.5481 1.27504 19.0726 0.977448 18.5523 0.783448C18.032 0.589449 17.4777 0.503081 16.9231 0.529576H4.77332C3.72027 0.579878 2.72698 1.03362 1.99951 1.79667C1.27204 2.55972 0.866211 3.57352 0.866211 4.62778C0.866211 5.68204 1.27204 6.69585 1.99951 7.4589C2.72698 8.22195 3.72027 8.67569 4.77332 8.72599ZM4.77332 1.43613H16.9231C17.353 1.41276 17.7832 1.47725 18.1873 1.62568C18.5915 1.77411 18.9611 2.00335 19.2737 2.29942C19.5863 2.59548 19.8353 2.95216 20.0055 3.34766C20.1756 3.74316 20.2634 4.16919 20.2634 4.59974C20.2634 5.03029 20.1756 5.45633 20.0055 5.85183C19.8353 6.24733 19.5863 6.60401 19.2737 6.90007C18.9611 7.19614 18.5915 7.42538 18.1873 7.57381C17.7832 7.72224 17.353 7.78673 16.9231 7.76335H4.77332C3.96402 7.71935 3.20235 7.36686 2.64501 6.77839C2.08768 6.18993 1.77706 5.41025 1.77706 4.59974C1.77706 3.78924 2.08768 3.00956 2.64501 2.42109C3.20235 1.83263 3.96402 1.48014 4.77332 1.43613Z" fill="#444444"/>
<path d="M16.9045 9.7078H4.75477C3.70171 9.7581 2.70843 10.2118 1.98096 10.9749C1.25348 11.7379 0.847656 12.7517 0.847656 13.806C0.847656 14.8603 1.25348 15.8741 1.98096 16.6371C2.70843 17.4002 3.70171 17.8539 4.75477 17.9042H16.9045C17.4592 17.9307 18.0134 17.8443 18.5337 17.6503C19.054 17.4563 19.5295 17.1587 19.9314 16.7756C20.3333 16.3924 20.6532 15.9317 20.8718 15.4212C21.0905 14.9108 21.2032 14.3613 21.2032 13.806C21.2032 13.2507 21.0905 12.7012 20.8718 12.1908C20.6532 11.6803 20.3333 11.2196 19.9314 10.8364C19.5295 10.4533 19.054 10.1557 18.5337 9.96167C18.0134 9.76767 17.4592 9.6813 16.9045 9.7078ZM16.9045 16.9696H4.75477C3.94546 16.9256 3.1838 16.5731 2.62646 15.9847C2.06912 15.3962 1.7585 14.6165 1.7585 13.806C1.7585 12.9955 2.06912 12.2158 2.62646 11.6274C3.1838 11.0389 3.94546 10.6864 4.75477 10.6424H16.9045C17.3344 10.619 17.7646 10.6835 18.1688 10.8319C18.5729 10.9804 18.9426 11.2096 19.2552 11.5057C19.5678 11.8017 19.8168 12.1584 19.9869 12.5539C20.1571 12.9494 20.2448 13.3755 20.2448 13.806C20.2448 14.2366 20.1571 14.6626 19.9869 15.0581C19.8168 15.4536 19.5678 15.8103 19.2552 16.1063C18.9426 16.4024 18.5729 16.6316 18.1688 16.7801C17.7646 16.9285 17.3344 16.993 16.9045 16.9696Z" fill="#444444"/>
<path d="M14.96 4.99674H16.0348V6.10891C16.0331 6.15947 16.0423 6.20981 16.0616 6.25655C16.0809 6.30329 16.11 6.34536 16.147 6.37995C16.2208 6.45578 16.3215 6.49944 16.4273 6.50144C16.5311 6.49837 16.6305 6.45864 16.7077 6.38929C16.744 6.35228 16.7726 6.30844 16.7918 6.26032C16.8111 6.2122 16.8206 6.16074 16.8199 6.10891V4.99674H17.8947C18.0005 4.99474 18.1012 4.95108 18.175 4.87525C18.211 4.83996 18.2395 4.79777 18.2588 4.75119C18.2781 4.70461 18.2877 4.65462 18.2872 4.60421C18.2885 4.55232 18.2792 4.50071 18.2599 4.45251C18.2406 4.40431 18.2117 4.36054 18.175 4.32384C18.1012 4.248 18.0005 4.20434 17.8947 4.20234H16.8199V3.12755C16.8206 3.07573 16.8111 3.02427 16.7918 2.97615C16.7726 2.92802 16.744 2.88419 16.7077 2.84717C16.6297 2.78007 16.5302 2.74316 16.4273 2.74316C16.3244 2.74316 16.225 2.78007 16.147 2.84717C16.1107 2.88419 16.0821 2.92802 16.0628 2.97615C16.0436 3.02427 16.0341 3.07573 16.0348 3.12755V4.23972H14.96C14.9075 4.2402 14.8557 4.2512 14.8075 4.27207C14.7594 4.29294 14.7159 4.32325 14.6796 4.36122C14.6429 4.39792 14.6141 4.4417 14.5948 4.4899C14.5755 4.53809 14.5662 4.5897 14.5675 4.6416C14.567 4.692 14.5766 4.742 14.5959 4.78857C14.6152 4.83515 14.6436 4.87735 14.6796 4.91263C14.7588 4.97577 14.8592 5.00591 14.96 4.99674Z" fill="#444444"/>
<path d="M17.8941 13.4359H16.8193V12.3611C16.8173 12.2553 16.7737 12.1545 16.6978 12.0807C16.6223 12.0124 16.524 11.9746 16.4221 11.9746C16.3203 11.9746 16.222 12.0124 16.1464 12.0807C16.1102 12.1177 16.0816 12.1616 16.0623 12.2097C16.0431 12.2578 16.0335 12.3093 16.0343 12.3611V13.4359H14.9501C14.8482 13.4425 14.7522 13.486 14.6799 13.5582C14.6077 13.6304 14.5642 13.7265 14.5576 13.8284C14.559 13.9325 14.599 14.0324 14.6698 14.1088C14.7068 14.1451 14.7506 14.1737 14.7987 14.1929C14.8469 14.2122 14.8983 14.2217 14.9501 14.221H16.0343V15.3051C16.0337 15.3555 16.0434 15.4055 16.0627 15.4521C16.0819 15.4986 16.1104 15.5408 16.1464 15.5761C16.1827 15.6141 16.2262 15.6444 16.2743 15.6653C16.3225 15.6861 16.3743 15.6971 16.4268 15.6976C16.5288 15.691 16.6248 15.6475 16.697 15.5753C16.7693 15.5031 16.8127 15.407 16.8193 15.3051V14.221H17.8941C17.946 14.2217 17.9974 14.2122 18.0455 14.1929C18.0937 14.1737 18.1375 14.1451 18.1745 14.1088C18.2453 14.0324 18.2853 13.9325 18.2867 13.8284C18.286 13.7404 18.2564 13.655 18.2025 13.5854C18.1653 13.5393 18.1184 13.502 18.0651 13.4761C18.0118 13.4503 17.9534 13.4365 17.8941 13.4359Z" fill="#444444"/>
</svg>
