<svg width="28" height="28" viewBox="0 0 28 28" fill="none" xmlns="http://www.w3.org/2000/svg">
<path fill-rule="evenodd" clip-rule="evenodd" d="M7.68538 9.31242C7.68538 9.77836 7.30766 10.1561 6.84171 10.1561C6.37577 10.1561 5.99805 9.77836 5.99805 9.31242C5.99805 8.84647 6.37577 8.46875 6.84171 8.46875C7.30766 8.46875 7.68538 8.84647 7.68538 9.31242ZM10.5101 8.68767H21.3759C21.721 8.68767 22.0008 8.96745 22.0008 9.3126C22.0008 9.65776 21.721 9.93754 21.3759 9.93754H10.5101C10.165 9.93754 9.88519 9.65776 9.88519 9.3126C9.88519 8.96745 10.165 8.68767 10.5101 8.68767ZM10.5101 13.3749H21.3759C21.721 13.3749 22.0008 13.6547 22.0008 13.9999C22.0008 14.345 21.721 14.6248 21.3759 14.6248H10.5101C10.165 14.6248 9.88519 14.345 9.88519 13.9999C9.88519 13.6547 10.165 13.3749 10.5101 13.3749ZM21.3759 18.0619H10.5101C10.165 18.0619 9.88519 18.3417 9.88519 18.6869C9.88519 19.032 10.165 19.3118 10.5101 19.3118H21.3759C21.721 19.3118 22.0008 19.032 22.0008 18.6869C22.0008 18.3417 21.721 18.0619 21.3759 18.0619ZM6.84171 14.8434C7.30766 14.8434 7.68538 14.4656 7.68538 13.9997C7.68538 13.5338 7.30766 13.156 6.84171 13.156C6.37577 13.156 5.99805 13.5338 5.99805 13.9997C5.99805 14.4656 6.37577 14.8434 6.84171 14.8434ZM7.68538 18.6866C7.68538 19.1526 7.30766 19.5303 6.84171 19.5303C6.37577 19.5303 5.99805 19.1526 5.99805 18.6866C5.99805 18.2207 6.37577 17.843 6.84171 17.843C7.30766 17.843 7.68538 18.2207 7.68538 18.6866Z" fill="#444444"/>
</svg>
