<svg width="24" height="24" viewBox="0 0 24 24" fill="none" xmlns="http://www.w3.org/2000/svg">
<path d="M11.9 0C9.54598 8.31164e-07 7.24484 0.698177 5.28768 2.00621C3.33052 3.31424 1.80527 5.17336 0.904881 7.34838C0.004493 9.5234 -0.230582 11.9166 0.229393 14.2253C0.689368 16.5339 1.82373 18.6543 3.48897 20.3181C5.15422 21.982 7.27553 23.1145 9.58456 23.5726C11.8936 24.0306 14.2866 23.7935 16.4609 22.8913C18.6351 21.9891 20.493 20.4623 21.7994 18.504C23.1057 16.5457 23.802 14.244 23.8 11.89C23.7947 8.73647 22.5389 5.71376 20.3081 3.48481C18.0773 1.25587 15.0535 0.00264336 11.9 0V0ZM11.9 22.54C9.79363 22.54 7.73456 21.9154 5.98318 20.7452C4.23179 19.5749 2.86676 17.9116 2.06068 15.9656C1.25461 14.0195 1.04371 11.8782 1.45464 9.81229C1.86557 7.74639 2.87988 5.84874 4.36931 4.35931C5.85874 2.86988 7.75639 1.85557 9.82229 1.44464C11.8882 1.0337 14.0295 1.24461 15.9756 2.05068C17.9216 2.85676 19.5849 4.22179 20.7552 5.97318C21.9254 7.72456 22.55 9.78363 22.55 11.89C22.5474 14.7137 21.4245 17.4211 19.4278 19.4178C17.4311 21.4145 14.7237 22.5374 11.9 22.54Z" fill="#333333"/>
<path d="M16.4507 6.87996H7.5707C7.48103 6.87861 7.392 6.89528 7.30889 6.92897C7.22578 6.96267 7.15028 7.01271 7.08686 7.07612C7.02345 7.13954 6.97341 7.21504 6.93972 7.29815C6.90602 7.38126 6.88935 7.47029 6.8907 7.55996V9.21996C6.8907 9.40031 6.96234 9.57327 7.08987 9.70079C7.21739 9.82832 7.39035 9.89996 7.5707 9.89996C7.75105 9.89996 7.92401 9.82832 8.05153 9.70079C8.17906 9.57327 8.2507 9.40031 8.2507 9.21996V8.21996H11.3307V15.74H10.3307C10.1504 15.74 9.97739 15.8116 9.84987 15.9391C9.72234 16.0666 9.6507 16.2396 9.6507 16.42C9.6507 16.6003 9.72234 16.7733 9.84987 16.9008C9.97739 17.0283 10.1504 17.1 10.3307 17.1H13.6707C13.851 17.1 14.024 17.0283 14.1515 16.9008C14.2791 16.7733 14.3507 16.6003 14.3507 16.42C14.3507 16.2396 14.2791 16.0666 14.1515 15.9391C14.024 15.8116 13.851 15.74 13.6707 15.74H12.6707V8.23996H15.7507V9.23996C15.7507 9.42031 15.8223 9.59327 15.9499 9.72079C16.0774 9.84832 16.2504 9.91996 16.4307 9.91996C16.611 9.91996 16.784 9.84832 16.9115 9.72079C17.0391 9.59327 17.1107 9.42031 17.1107 9.23996V7.55996C17.112 7.47197 17.096 7.38458 17.0635 7.30279C17.0311 7.22099 16.9828 7.14639 16.9216 7.08325C16.8603 7.0201 16.7871 6.96965 16.7063 6.93477C16.6256 6.89989 16.5387 6.88126 16.4507 6.87996Z" fill="#333333"/>
</svg>
