<svg width="24" height="25" viewBox="0 0 24 25" fill="none" xmlns="http://www.w3.org/2000/svg">
<path d="M23.1203 19.6913V5.12125C23.1208 5.01464 23.0898 4.91027 23.031 4.82129C22.9723 4.73232 22.8886 4.66271 22.7903 4.62125L11.7603 0.0112518C11.6944 -0.00279117 11.6263 -0.00279117 11.5603 0.0112518C11.4945 -0.00375059 11.4262 -0.00375059 11.3603 0.0112518L0.330342 4.62125C0.23049 4.66039 0.145181 4.72944 0.0861036 4.81895C0.0270265 4.90847 -0.0029286 5.01405 0.000342419 5.12125V19.6913C-0.00356197 19.7998 0.0260012 19.907 0.0850279 19.9982C0.144055 20.0894 0.229693 20.1603 0.330342 20.2013L11.3303 24.8013C11.4402 24.841 11.5605 24.841 11.6703 24.8013L11.8503 24.7413L22.7903 20.2213C22.8926 20.1768 22.9789 20.1023 23.0378 20.0076C23.0968 19.913 23.1255 19.8026 23.1203 19.6913ZM11.5603 1.10125H11.6503L14.9003 2.46125L5.48034 6.67125L1.85034 5.15125L11.5603 1.10125ZM11.0303 23.4913L1.03034 19.3313V6.00125L5.03034 7.67125V11.9713C5.01987 12.0476 5.02589 12.1254 5.04798 12.1993C5.07007 12.2731 5.10772 12.3414 5.15841 12.3995C5.2091 12.4576 5.27164 12.5042 5.34183 12.5361C5.41202 12.5681 5.48824 12.5846 5.56534 12.5846C5.64245 12.5846 5.71866 12.5681 5.78885 12.5361C5.85905 12.5042 5.92159 12.4576 5.97228 12.3995C6.02296 12.3414 6.06062 12.2731 6.08271 12.1993C6.1048 12.1254 6.11081 12.0476 6.10034 11.9713V8.11125L11.0003 10.1113L11.0303 23.4913ZM11.5603 9.22125H11.4603L6.86034 7.22125L16.2703 3.05125H16.3703L21.2603 5.05125L20.7103 5.28125L11.5603 9.22125ZM22.0603 19.3413L21.9003 19.4013L12.1203 23.4913V10.1613L12.2703 10.1013L22.0903 6.00125L22.0603 19.3413Z" fill="#333333"/>
</svg>
