<svg width="21" height="21" viewBox="0 0 21 21" fill="none" xmlns="http://www.w3.org/2000/svg">
<path d="M18.95 2.85741e-05H1.76C1.52934 -0.00128947 1.30071 0.0430028 1.08723 0.130358C0.873755 0.217714 0.679654 0.346409 0.51609 0.509043C0.352527 0.671677 0.222729 0.865041 0.134159 1.07801C0.0455887 1.29099 -3.76563e-06 1.51937 2.33271e-10 1.75003V18.92C-3.76563e-06 19.1507 0.0455887 19.3791 0.134159 19.592C0.222729 19.805 0.352527 19.9984 0.51609 20.161C0.679654 20.3236 0.873755 20.4523 1.08723 20.5397C1.30071 20.6271 1.52934 20.6713 1.76 20.67H18.95C19.4124 20.6674 19.8549 20.4818 20.181 20.1539C20.507 19.826 20.69 19.3824 20.69 18.92V1.75003C20.69 1.28763 20.507 0.844017 20.181 0.516114C19.8549 0.188211 19.4124 0.00267087 18.95 2.85741e-05ZM19.69 18.92C19.6874 19.1013 19.6135 19.2742 19.4844 19.4015C19.3553 19.5287 19.1813 19.6 19 19.6H1.76C1.57965 19.6 1.40669 19.5284 1.27917 19.4009C1.15164 19.2733 1.08 19.1004 1.08 18.92V5.92003H19.69V18.92ZM19.69 4.92003H1.08V1.75003C1.08 1.56968 1.15164 1.39672 1.27917 1.2692C1.40669 1.14167 1.57965 1.07003 1.76 1.07003H18.95C19.1313 1.07001 19.3053 1.14133 19.4344 1.26858C19.5635 1.39582 19.6374 1.56877 19.64 1.75003L19.69 4.92003Z" fill="#333333"/>
<path d="M6.31094 15.6204C6.41206 15.7209 6.54832 15.7783 6.69094 15.7804C6.79721 15.7796 6.9009 15.7476 6.98903 15.6882C7.07716 15.6288 7.14581 15.5447 7.18638 15.4465C7.22695 15.3483 7.23764 15.2403 7.21711 15.136C7.19657 15.0317 7.14572 14.9359 7.07094 14.8604L5.01094 12.8004L7.07094 10.7304C7.12174 10.681 7.16212 10.6219 7.1897 10.5566C7.21727 10.4913 7.23148 10.4212 7.23148 10.3504C7.23148 10.2795 7.21727 10.2094 7.1897 10.1441C7.16212 10.0788 7.12174 10.0197 7.07094 9.97035C6.9688 9.87252 6.83236 9.81866 6.69094 9.82035C6.54971 9.81971 6.41365 9.87342 6.31094 9.97035L3.87094 12.4204C3.82023 12.4698 3.77995 12.5289 3.75247 12.5942C3.72499 12.6594 3.71087 12.7295 3.71094 12.8004C3.71164 12.8696 3.72615 12.938 3.75362 13.0015C3.7811 13.065 3.82098 13.1224 3.87094 13.1704L6.31094 15.6204Z" fill="#333333"/>
<path d="M15.6892 12.8H15.6392L13.6392 14.8C13.5436 14.9034 13.4905 15.0391 13.4905 15.18C13.4905 15.3208 13.5436 15.4565 13.6392 15.56C13.7414 15.6588 13.877 15.7159 14.0192 15.72C14.09 15.72 14.1601 15.7059 14.2254 15.6784C14.2906 15.651 14.3497 15.6107 14.3992 15.56L16.8492 13.11C16.8978 13.0616 16.9361 13.0038 16.9619 12.9403C16.9877 12.8767 17.0003 12.8086 16.9992 12.74C17.0011 12.6698 16.9888 12.5999 16.963 12.5346C16.9373 12.4693 16.8985 12.4099 16.8492 12.36L14.3992 9.90997C14.3492 9.8606 14.2898 9.82186 14.2245 9.79609C14.1592 9.77031 14.0894 9.75802 14.0192 9.75997C13.9128 9.75783 13.8083 9.78775 13.7191 9.84583C13.63 9.90391 13.5604 9.98747 13.5194 10.0856C13.4785 10.1838 13.468 10.292 13.4893 10.3962C13.5107 10.5005 13.5629 10.5958 13.6392 10.67L15.6892 12.8Z" fill="#333333"/>
<path d="M8.95914 16.9703C9.09442 17.0147 9.24176 17.0039 9.36911 16.9402C9.49647 16.8765 9.59351 16.7651 9.63914 16.6303L12.0891 9.30026C12.1336 9.16498 12.1228 9.01764 12.0591 8.89028C11.9954 8.76293 11.884 8.66588 11.7491 8.62026H11.5791C11.4654 8.61762 11.3538 8.65238 11.2617 8.71922C11.1696 8.78605 11.1019 8.88127 11.0691 8.99026L8.62914 16.3203C8.60191 16.3852 8.58789 16.4549 8.58789 16.5253C8.58789 16.5957 8.60191 16.6653 8.62914 16.7303C8.70644 16.8476 8.8237 16.9329 8.95914 16.9703Z" fill="#333333"/>
<path d="M4.24933 2.43957H3.02933C2.95294 2.4291 2.87519 2.43511 2.80132 2.4572C2.72744 2.4793 2.65915 2.51695 2.60104 2.56764C2.54294 2.61832 2.49636 2.68087 2.46445 2.75106C2.43253 2.82125 2.41602 2.89746 2.41602 2.97457C2.41602 3.05168 2.43253 3.12789 2.46445 3.19808C2.49636 3.26827 2.54294 3.33082 2.60104 3.3815C2.65915 3.43219 2.72744 3.46985 2.80132 3.49194C2.87519 3.51403 2.95294 3.52004 3.02933 3.50957H4.24933C4.37864 3.49185 4.49715 3.4279 4.58295 3.32954C4.66875 3.23119 4.71601 3.10509 4.71601 2.97457C4.71601 2.84405 4.66875 2.71795 4.58295 2.6196C4.49715 2.52124 4.37864 2.45729 4.24933 2.43957Z" fill="#333333"/>
<path d="M7.90934 2.43957H6.68934C6.56003 2.45729 6.44152 2.52124 6.35572 2.6196C6.26993 2.71795 6.22266 2.84405 6.22266 2.97457C6.22266 3.10509 6.26993 3.23119 6.35572 3.32954C6.44152 3.4279 6.56003 3.49185 6.68934 3.50957H7.90934C7.98574 3.52004 8.06348 3.51403 8.13736 3.49194C8.21123 3.46985 8.27952 3.43219 8.33763 3.3815C8.39573 3.33082 8.44231 3.26827 8.47423 3.19808C8.50614 3.12789 8.52266 3.05168 8.52266 2.97457C8.52266 2.89746 8.50614 2.82125 8.47423 2.75106C8.44231 2.68087 8.39573 2.61832 8.33763 2.56764C8.27952 2.51695 8.21123 2.4793 8.13736 2.4572C8.06348 2.43511 7.98574 2.4291 7.90934 2.43957Z" fill="#333333"/>
<path d="M11.5794 2.43957H10.3594C10.283 2.4291 10.2053 2.43511 10.1314 2.4572C10.0575 2.4793 9.98923 2.51695 9.93112 2.56764C9.87302 2.61832 9.82644 2.68087 9.79452 2.75106C9.76261 2.82125 9.74609 2.89746 9.74609 2.97457C9.74609 3.05168 9.76261 3.12789 9.79452 3.19808C9.82644 3.26827 9.87302 3.33082 9.93112 3.3815C9.98923 3.43219 10.0575 3.46985 10.1314 3.49194C10.2053 3.51403 10.283 3.52004 10.3594 3.50957H11.5794C11.6558 3.52004 11.7336 3.51403 11.8074 3.49194C11.8813 3.46985 11.9496 3.43219 12.0077 3.3815C12.0658 3.33082 12.1124 3.26827 12.1443 3.19808C12.1762 3.12789 12.1927 3.05168 12.1927 2.97457C12.1927 2.89746 12.1762 2.82125 12.1443 2.75106C12.1124 2.68087 12.0658 2.61832 12.0077 2.56764C11.9496 2.51695 11.8813 2.4793 11.8074 2.4572C11.7336 2.43511 11.6558 2.4291 11.5794 2.43957Z" fill="#333333"/>
</svg>
