<svg width="28" height="28" viewBox="0 0 28 28" fill="none" xmlns="http://www.w3.org/2000/svg">
<path fill-rule="evenodd" clip-rule="evenodd" d="M9.41667 23.1663H6.08333C4.935 23.1663 4 22.2313 4 21.083V18.5828V14.4162V10.2497V6.91634C4 5.76801 4.935 4.83301 6.08333 4.83301H21.9167C23.065 4.83301 24 5.76801 24 6.91634V10.2497V14.4162V18.5828V21.083C24 22.2313 23.065 23.1663 21.9167 23.1663H18.5841H13.9992H9.41667ZM19.0008 22.333H21.9167C22.6058 22.333 23.1667 21.7722 23.1667 21.083V18.9995H19.0008V22.333ZM18.1675 18.9995V22.333H14.4159V18.9995H18.1675ZM19.0008 18.1661H23.1667V14.8329H19.0008V18.1661ZM18.1675 14.8329V18.1661H14.4159V14.8329H18.1675ZM19.0008 13.9996H23.1667V10.6663H19.0008V13.9996ZM18.1675 10.6663V13.9996H14.4159V10.6663H18.1675ZM18.5841 9.83301H13.9992H9.41667H4.83333V6.91634C4.83333 6.22717 5.39417 5.66634 6.08333 5.66634H21.9167C22.6058 5.66634 23.1667 6.22717 23.1667 6.91634V9.83301H18.5841ZM13.5825 22.333V18.9995H9.83333V22.333H13.5825ZM13.5825 18.1661V14.8329H9.83333V18.1661H13.5825ZM13.5825 13.9996V10.6663H9.83333V13.9996H13.5825ZM9 22.333H6.08333C5.39417 22.333 4.83333 21.7722 4.83333 21.083V18.9995H9V22.333ZM9 14.8329H4.83333V18.1661H9V14.8329ZM9 13.9996H4.83333V10.6663H9V13.9996Z" fill="#444444"/>
</svg>
