<svg width="25" height="17" viewBox="0 0 25 17" fill="none" xmlns="http://www.w3.org/2000/svg">
<path d="M22.1277 8.32771C23.0244 8.08057 23.809 7.47447 24.3331 6.62408C24.8572 5.77368 25.0844 4.73797 24.9718 3.71286C24.8592 2.68775 24.4146 1.74434 23.722 1.0611C23.0294 0.377865 22.137 0.00217757 21.2135 0.0051124H3.97091C3.45883 -0.0230592 2.94696 0.0654142 2.46637 0.265164C1.98579 0.464914 1.5465 0.771777 1.17516 1.16713C0.803825 1.56249 0.508183 2.03809 0.306174 2.56509C0.104165 3.09209 0 3.65949 0 4.23287C0 4.80625 0.104165 5.37365 0.306174 5.90065C0.508183 6.42765 0.803825 6.90325 1.17516 7.29861C1.5465 7.69396 1.98579 8.00083 2.46637 8.20058C2.94696 8.40033 3.45883 8.4888 3.97091 8.46063H17.7851V14.5952C17.7737 14.719 17.7986 14.8436 17.8562 14.9501C17.9138 15.0566 18.0009 15.1393 18.1042 15.1855C18.2075 15.2317 18.3215 15.239 18.4289 15.2063C18.5363 15.1736 18.6312 15.1026 18.6993 15.0042L20.7106 12.7446L22.1277 16.6503C22.1528 16.7189 22.1897 16.7813 22.2364 16.8339C22.2831 16.8865 22.3386 16.9282 22.3998 16.9567C22.461 16.9852 22.5266 17 22.5928 17C22.6591 17.0001 22.7247 16.9855 22.7859 16.957C22.9106 16.8981 23.0099 16.7873 23.0628 16.648C23.1156 16.5087 23.118 16.3519 23.0694 16.2107L21.6157 12.305H24.4773C24.5774 12.3067 24.6755 12.2744 24.7588 12.2123C24.8421 12.1502 24.9065 12.0613 24.9436 11.9573C24.9836 11.8531 24.9946 11.7378 24.975 11.6265C24.9555 11.5152 24.9062 11.4131 24.8338 11.3337L22.1277 8.32771ZM3.96177 7.30528C3.23436 7.30528 2.53674 6.98212 2.02238 6.40689C1.50802 5.83166 1.21905 5.05148 1.21905 4.23798C1.21905 3.42448 1.50802 2.64431 2.02238 2.06908C2.53674 1.49385 3.23436 1.17069 3.96177 1.17069H21.2135C21.5736 1.16733 21.9309 1.24334 22.2648 1.39439C22.5987 1.54543 22.9027 1.76855 23.1595 2.051C23.4164 2.33345 23.6209 2.66971 23.7615 3.04056C23.9021 3.41142 23.976 3.80962 23.979 4.21242C23.982 4.61522 23.9141 5.01474 23.779 5.38817C23.6439 5.7616 23.4444 6.10162 23.1919 6.38881C22.9393 6.67601 22.6386 6.90477 22.307 7.06201C21.9754 7.21926 21.6193 7.30192 21.2592 7.30528L18.6627 4.43224C18.5946 4.3338 18.4997 4.26284 18.3923 4.23013C18.2849 4.19742 18.171 4.20473 18.0676 4.25095C17.9643 4.29718 17.8772 4.3798 17.8197 4.48631C17.7621 4.59282 17.7371 4.71741 17.7485 4.84122V7.3155L3.96177 7.30528ZM20.8569 11.1701C20.7908 11.1698 20.7252 11.1841 20.6641 11.2121C20.6029 11.2402 20.5472 11.2815 20.5003 11.3337L18.809 13.2252V6.21128L23.2431 11.1701H20.8569Z" fill="#333333"/>
</svg>
