<svg width="28" height="28" viewBox="0 0 28 28" fill="none" xmlns="http://www.w3.org/2000/svg">
<path d="M10.1094 22.2696C10.4694 22.2696 10.8494 22.3096 11.2094 22.3796C11.6594 22.7296 12.2894 22.6896 12.6894 22.2796L13.1694 21.7896L24.0094 9.07957C24.3694 8.62957 24.3394 7.96957 23.9294 7.55957L20.8094 4.33957C20.3894 3.91957 19.7194 3.88957 19.2694 4.27957L6.85938 15.3896L6.36937 15.8896C6.15937 16.0996 6.03938 16.3996 6.03938 16.6896C6.03938 16.9496 6.11937 17.1996 6.26938 17.3996C6.36937 17.8596 6.68937 19.8796 5.41937 21.1796C5.31937 21.2896 5.27937 21.4396 5.30937 21.5896L4.11938 22.7896C3.93937 22.9696 3.93937 23.2696 4.11938 23.4496C4.14938 23.4796 4.18937 23.5096 4.23937 23.5396L5.56938 24.2196C5.62937 24.2496 5.70937 24.2696 5.77937 24.2696H16.4594C16.7094 24.2696 16.9194 24.0596 16.9194 23.8096C16.9194 23.5596 16.7094 23.3496 16.4594 23.3496H7.40938C7.40938 23.3496 7.46938 23.3096 7.49938 23.2796C8.20937 22.6096 9.13937 22.2596 10.1194 22.2996L10.1094 22.2696ZM7.83938 15.7496L19.8694 4.97957C19.9494 4.90957 20.0794 4.90957 20.1494 4.98957L23.2994 8.17957C23.3794 8.25957 23.3894 8.37957 23.3194 8.45957L12.7994 20.7896L7.83938 15.7396V15.7496ZM6.33938 22.7396L5.72938 23.2396L5.22938 22.9896L5.90937 22.2996L6.34938 22.7496L6.33938 22.7396ZM6.99938 16.5696C6.99938 16.5696 7.00938 16.5596 7.01938 16.5496L7.16938 16.3996L12.1894 21.4896L12.0394 21.6396C12.0394 21.6396 11.9494 21.6996 11.8894 21.6996C11.8894 21.6996 11.7994 21.6796 11.7694 21.6596L11.7494 21.6396C11.6894 21.5796 11.6194 21.5396 11.5394 21.5196C11.0794 21.4096 10.6194 21.3496 10.1494 21.3496H10.1094C9.05937 21.2996 8.02938 21.6496 7.18938 22.2896L6.37938 21.4696C7.82938 19.6196 7.14938 17.0796 7.13938 17.0496L6.99938 16.5696Z" fill="#444444"/>
</svg>
