<svg width="28" height="26" viewBox="0 0 26 25" fill="none" xmlns="http://www.w3.org/2000/svg">
<path fill-rule="evenodd" clip-rule="evenodd" d="M13 25C19.9036 25 25.5 19.4036 25.5 12.5C25.5 5.59644 19.9036 0 13 0C6.09644 0 0.5 5.59644 0.5 12.5C0.5 19.4036 6.09644 25 13 25ZM17.6328 15.9581L13.5555 19.9162C13.4826 19.9868 13.396 20.0428 13.3006 20.081C13.2053 20.1193 13.1031 20.1389 12.9998 20.1389C12.8966 20.1389 12.7944 20.1191 12.6991 20.0808C12.6038 20.0426 12.5172 19.9865 12.4444 19.9158L8.36709 15.9578C8.22042 15.8153 8.13834 15.6225 8.13889 15.4216C8.13944 15.2207 8.22258 15.0282 8.37002 14.8865C8.51747 14.7449 8.71713 14.6656 8.92509 14.6661C9.13305 14.6666 9.33228 14.7469 9.47894 14.8894L12.2162 17.5465V5.61856C12.2162 5.41767 12.2988 5.22501 12.4459 5.08296C12.5929 4.94091 12.7924 4.86111 13.0003 4.86111C13.2083 4.86111 13.4077 4.94091 13.5548 5.08296C13.7018 5.22501 13.7844 5.41767 13.7844 5.61856L13.7844 17.5465L16.5209 14.8894C16.5936 14.8189 16.6799 14.7628 16.7749 14.7245C16.87 14.6862 16.9719 14.6664 17.0749 14.6662C17.1779 14.6659 17.2799 14.6853 17.3752 14.7231C17.4704 14.761 17.557 14.8166 17.63 14.8867C17.703 14.9569 17.761 15.0403 17.8007 15.1321C17.8403 15.2239 17.8609 15.3224 17.8611 15.4219C17.8614 15.5214 17.8413 15.6199 17.8022 15.7119C17.763 15.804 17.7054 15.8876 17.6328 15.9581Z" fill="#222222"/>
</svg>
