<svg width="28" height="26" viewBox="0 0 28 26" fill="none" xmlns="http://www.w3.org/2000/svg">
<path d="M7.25281 20.4814C5.42678 20.4814 3.80262 19.3023 3.21296 17.5469L3.17304 17.4146C3.03389 16.9499 2.97572 16.5588 2.97572 16.1677V8.32471L0.20873 17.6401C-0.147124 19.0102 0.663812 20.4308 2.0245 20.8093L19.6609 25.5728C19.8811 25.6303 20.1012 25.6579 20.3179 25.6579C21.4539 25.6579 22.4918 24.8976 22.7826 23.7771L23.8103 20.4814H7.25281Z" fill="#222222"/>
<path d="M10.3885 8.40309C11.6466 8.40309 12.6696 7.37124 12.6696 6.10242C12.6696 4.83361 11.6466 3.80176 10.3885 3.80176C9.1305 3.80176 8.10742 4.83361 8.10742 6.10242C8.10742 7.37124 9.1305 8.40309 10.3885 8.40309Z" fill="#222222"/>
<path d="M24.6453 0.350098H7.53694C5.96525 0.350098 4.68555 1.64077 4.68555 3.22593V15.8796C4.68555 17.4648 5.96525 18.7554 7.53694 18.7554H24.6453C26.217 18.7554 27.4967 17.4648 27.4967 15.8796V3.22593C27.4967 1.64077 26.217 0.350098 24.6453 0.350098ZM7.53694 2.65076H24.6453C24.9601 2.65076 25.2156 2.90844 25.2156 3.22593V11.3921L21.6126 7.15202C21.2305 6.69994 20.6773 6.45837 20.0831 6.44456C19.4923 6.44801 18.938 6.71259 18.5593 7.17042L14.3233 12.2986L12.9432 10.9102C12.163 10.1233 10.8936 10.1233 10.1146 10.9102L6.96666 14.0839V3.22593C6.96666 2.90844 7.22215 2.65076 7.53694 2.65076Z" fill="#222222"/>
</svg>
