<svg width="19" height="21" viewBox="0 0 19 21" fill="none" xmlns="http://www.w3.org/2000/svg">
<path d="M14.1924 13.45H4.09598C3.57853 13.45 3.06614 13.5519 2.58808 13.7499C2.11001 13.9479 1.67563 14.2382 1.30974 14.6041C0.570782 15.343 0.15564 16.3453 0.15564 17.3903V20.5884C0.189519 20.707 0.261113 20.8114 0.359585 20.8856C0.458057 20.9599 0.578047 21.0001 0.701394 21.0001C0.824741 21.0001 0.94473 20.9599 1.0432 20.8856C1.14167 20.8114 1.21327 20.707 1.24715 20.5884V17.3903C1.24708 17.0187 1.32112 16.6508 1.46495 16.3082C1.60877 15.9656 1.81949 15.6551 2.08477 15.3949C2.35005 15.1347 2.66456 14.93 3.0099 14.7929C3.35524 14.6557 3.72447 14.5888 4.09598 14.596H14.1924C14.9335 14.596 15.6442 14.8904 16.1683 15.4145C16.6923 15.9385 16.9867 16.6492 16.9867 17.3903V20.5884C17.0206 20.707 17.0922 20.8114 17.1906 20.8856C17.2891 20.9599 17.4091 21.0001 17.5324 21.0001C17.6558 21.0001 17.7758 20.9599 17.8743 20.8856C17.9727 20.8114 18.0443 20.707 18.0782 20.5884V17.3903C18.0783 16.3546 17.6707 15.3606 16.9435 14.6232C16.2163 13.8858 15.228 13.4643 14.1924 13.45Z" fill="#333333"/>
<path d="M0.723483 11.2237H2.4044C2.52301 11.1898 2.62735 11.1182 2.70163 11.0197C2.77591 10.9213 2.81609 10.8013 2.81609 10.6779C2.81609 10.5546 2.77591 10.4346 2.70163 10.3361C2.62735 10.2377 2.52301 10.1661 2.4044 10.1322H0.723483C0.639013 10.1081 0.550095 10.1039 0.463729 10.1199C0.377364 10.136 0.295908 10.1719 0.225776 10.2248C0.155643 10.2777 0.0987481 10.3462 0.0595699 10.4248C0.0203918 10.5034 0 10.5901 0 10.6779C0 10.7658 0.0203918 10.8524 0.0595699 10.9311C0.0987481 11.0097 0.155643 11.0782 0.225776 11.1311C0.295908 11.184 0.377364 11.2199 0.463729 11.2359C0.550095 11.252 0.639013 11.2478 0.723483 11.2237Z" fill="#333333"/>
<path d="M5.77597 10.0885C5.6915 10.0644 5.60259 10.0602 5.51622 10.0762C5.42985 10.0923 5.3484 10.1282 5.27827 10.1811C5.20813 10.234 5.15124 10.3025 5.11206 10.3811C5.07288 10.4597 5.05249 10.5464 5.05249 10.6342C5.05249 10.7221 5.07288 10.8087 5.11206 10.8874C5.15124 10.966 5.20813 11.0345 5.27827 11.0874C5.3484 11.1403 5.42985 11.1762 5.51622 11.1922C5.60259 11.2083 5.6915 11.2041 5.77597 11.18H7.47873C7.59733 11.1461 7.70167 11.0745 7.77595 10.976C7.85023 10.8776 7.89041 10.7576 7.89041 10.6342C7.89041 10.5109 7.85023 10.3909 7.77595 10.2924C7.70167 10.194 7.59733 10.1224 7.47873 10.0885H5.77597Z" fill="#333333"/>
<path d="M10.8199 10.0885C10.7354 10.0644 10.6465 10.0602 10.5602 10.0762C10.4738 10.0923 10.3923 10.1282 10.3222 10.1811C10.2521 10.234 10.1952 10.3025 10.156 10.3811C10.1168 10.4597 10.0964 10.5464 10.0964 10.6342C10.0964 10.7221 10.1168 10.8087 10.156 10.8874C10.1952 10.966 10.2521 11.0345 10.3222 11.0874C10.3923 11.1403 10.4738 11.1762 10.5602 11.1922C10.6465 11.2083 10.7354 11.2041 10.8199 11.18H12.5008C12.5853 11.2041 12.6742 11.2083 12.7606 11.1922C12.847 11.1762 12.9284 11.1403 12.9985 11.0874C13.0687 11.0345 13.1256 10.966 13.1648 10.8874C13.2039 10.8087 13.2243 10.7221 13.2243 10.6342C13.2243 10.5464 13.2039 10.4597 13.1648 10.3811C13.1256 10.3025 13.0687 10.234 12.9985 10.1811C12.9284 10.1282 12.847 10.0923 12.7606 10.0762C12.6742 10.0602 12.5853 10.0644 12.5008 10.0885H10.8199Z" fill="#333333"/>
<path d="M17.5533 10.0885H15.8724C15.7879 10.0644 15.699 10.0602 15.6127 10.0762C15.5263 10.0923 15.4448 10.1282 15.3747 10.1811C15.3046 10.234 15.2477 10.3025 15.2085 10.3811C15.1693 10.4597 15.1489 10.5464 15.1489 10.6342C15.1489 10.7221 15.1693 10.8087 15.2085 10.8874C15.2477 10.966 15.3046 11.0345 15.3747 11.0874C15.4448 11.1403 15.5263 11.1762 15.6127 11.1922C15.699 11.2083 15.7879 11.2041 15.8724 11.18H17.5533C17.6378 11.2041 17.7267 11.2083 17.8131 11.1922C17.8995 11.1762 17.9809 11.1403 18.051 11.0874C18.1212 11.0345 18.1781 10.966 18.2172 10.8874C18.2564 10.8087 18.2768 10.7221 18.2768 10.6342C18.2768 10.5464 18.2564 10.4597 18.2172 10.3811C18.1781 10.3025 18.1212 10.234 18.051 10.1811C17.9809 10.1282 17.8995 10.0923 17.8131 10.0762C17.7267 10.0602 17.6378 10.0644 17.5533 10.0885Z" fill="#333333"/>
<path d="M4.09493 7.86195H14.1914C15.2345 7.85906 16.234 7.44264 16.9706 6.70399C17.7072 5.96535 18.1208 4.96476 18.1208 3.9216V0.723483C18.1449 0.639013 18.1491 0.550095 18.1331 0.463729C18.117 0.377364 18.0811 0.295908 18.0282 0.225776C17.9753 0.155643 17.9068 0.0987481 17.8282 0.0595699C17.7495 0.0203918 17.6629 0 17.5751 0C17.4872 0 17.4006 0.0203918 17.3219 0.0595699C17.2433 0.0987481 17.1748 0.155643 17.1219 0.225776C17.069 0.295908 17.0331 0.377364 17.017 0.463729C17.001 0.550095 17.0052 0.639013 17.0293 0.723483V3.9216C17.0293 4.66369 16.7353 5.37555 16.2115 5.90131C15.6878 6.42707 14.9771 6.72389 14.235 6.72678H4.09493C3.35095 6.72678 2.63744 6.43123 2.11137 5.90516C1.58529 5.37909 1.28975 4.66558 1.28975 3.9216V0.723483C1.25587 0.60488 1.18428 0.500542 1.0858 0.42626C0.987333 0.351979 0.867343 0.311797 0.743996 0.311797C0.620649 0.311797 0.500659 0.351979 0.402188 0.42626C0.303716 0.500542 0.232122 0.60488 0.198242 0.723483V3.9216C0.198179 4.95912 0.607322 5.95481 1.33686 6.69252C2.0664 7.43024 3.05747 7.85045 4.09493 7.86195Z" fill="#333333"/>
</svg>
