<svg width="21" height="24" viewBox="0 0 21 24" fill="none" xmlns="http://www.w3.org/2000/svg">
<path fill-rule="evenodd" clip-rule="evenodd" d="M19.9551 9.80845H5.13784L19.3717 5.67813C19.4267 5.66411 19.4782 5.63875 19.5229 5.60366C19.5675 5.56858 19.6044 5.52455 19.631 5.47439C19.6724 5.36712 19.6724 5.24828 19.631 5.141L18.8809 2.5665C18.7349 2.07042 18.4342 1.63396 18.0228 1.32077C17.6113 1.00758 17.1105 0.834041 16.5935 0.825469C16.3679 0.824339 16.1434 0.855525 15.9267 0.918077L2.56334 4.78909C1.95422 4.97756 1.44329 5.39737 1.14027 5.95838C0.837258 6.51939 0.766322 7.17686 0.9427 7.78959L1.6743 10.2993V20.6528C1.6743 21.2939 1.92896 21.9087 2.38225 22.362C2.60669 22.5864 2.87315 22.7645 3.1664 22.8859C3.45965 23.0074 3.77396 23.0699 4.09137 23.0699H17.9826C18.622 23.0675 19.2344 22.8117 19.6857 22.3587C20.137 21.9057 20.3904 21.2923 20.3904 20.6528V10.2344C20.388 10.1206 20.341 10.0123 20.2597 9.93264C20.1783 9.853 20.069 9.80842 19.9551 9.80845ZM16.5379 10.6697L14.6857 13.8739H12.2964L14.1486 10.6697H16.5379ZM13.1392 10.6697L11.287 13.8739H8.88847L10.7406 10.6697H13.1392ZM9.7312 10.6697L7.87904 13.8739H5.48975L7.34191 10.6697H9.7312ZM6.33249 10.6697L4.48033 13.8739H2.50778V10.6697H6.33249ZM16.1675 1.75155C16.3065 1.71493 16.4497 1.69626 16.5935 1.69598C16.9289 1.69448 17.2557 1.80206 17.5246 2.00251C17.7936 2.20296 17.99 2.48542 18.0844 2.80728L18.7142 4.96505L16.9731 5.47439L16.9083 5.40031L13.8245 2.43685L16.1675 1.75155ZM12.8706 2.67763C12.8835 2.70347 12.9026 2.72574 12.9262 2.74245L16.0193 5.70591L13.6948 6.38195C13.6848 6.35428 13.6651 6.33122 13.6393 6.31712L10.5554 3.38145L12.8706 2.67763ZM9.59229 3.60371L9.65711 3.66853L12.741 6.64125L10.4258 7.30803C10.4128 7.28219 10.3938 7.25992 10.3702 7.24321L7.27709 4.32605L9.59229 3.60371ZM6.32323 4.52979C6.33987 4.55585 6.36199 4.57797 6.38805 4.59462L9.4719 7.56733L7.1567 8.23411L7.10113 8.16928L4.00802 5.27991L6.32323 4.52979ZM1.74839 7.54881C1.68721 7.35492 1.66633 7.15057 1.68703 6.94831C1.70773 6.74605 1.76958 6.55016 1.86878 6.37269C1.96627 6.19293 2.09824 6.03415 2.25715 5.90544C2.41605 5.77673 2.59877 5.6806 2.79486 5.62256L3.0449 5.54848L3.10047 5.62256L6.19357 8.58602L2.3596 9.69732L1.74839 7.54881ZM19.5199 20.6528C19.5199 21.063 19.3569 21.4564 19.0669 21.7464C18.7769 22.0365 18.3835 22.1994 17.9733 22.1994H4.08211C3.67194 22.1994 3.27857 22.0365 2.98853 21.7464C2.6985 21.4564 2.53556 21.063 2.53556 20.6528V14.7352H19.5199V20.6528ZM19.5199 13.8739H15.7044L17.5566 10.6697H19.5291L19.5199 13.8739Z" fill="#444444"/>
<path fill-rule="evenodd" clip-rule="evenodd" d="M13.7958 18.051L9.98032 15.8469C9.91519 15.8058 9.83973 15.7839 9.76269 15.7839C9.68565 15.7839 9.61019 15.8058 9.54506 15.8469C9.4807 15.8851 9.42729 15.9393 9.38998 16.0042C9.35267 16.0691 9.33272 16.1425 9.33207 16.2174V20.6255C9.33111 20.7019 9.35029 20.7772 9.38768 20.8439C9.42507 20.9105 9.47935 20.9662 9.54506 21.0052C9.61373 21.041 9.68989 21.06 9.76732 21.0608C9.84196 21.0612 9.91542 21.0421 9.98032 21.0052L13.7958 18.8011C13.8635 18.7646 13.9201 18.7105 13.9595 18.6445C13.999 18.5785 14.0198 18.503 14.0198 18.4261C14.0198 18.3491 13.999 18.2737 13.9595 18.2076C13.9201 18.1416 13.8635 18.0875 13.7958 18.051ZM10.2026 19.8754V17.0045L12.7123 18.4492L10.2026 19.8754Z" fill="#444444"/>
</svg>
