<svg width="27" height="7" viewBox="0 0 27 7" fill="none" xmlns="http://www.w3.org/2000/svg">
<path d="M24.0482 0.551392H3.58632C2.80345 0.551392 2.05265 0.862384 1.49908 1.41595C0.945514 1.96952 0.634521 2.72032 0.634521 3.50319C0.634521 4.28606 0.945514 5.03686 1.49908 5.59043C2.05265 6.144 2.80345 6.45499 3.58632 6.45499H24.0482C24.4359 6.45499 24.8197 6.37864 25.1778 6.2303C25.536 6.08195 25.8614 5.86453 26.1355 5.59043C26.4096 5.31633 26.627 4.99092 26.7753 4.63279C26.9237 4.27467 27 3.89083 27 3.50319C27 3.11555 26.9237 2.73171 26.7753 2.37359C26.627 2.01546 26.4096 1.69005 26.1355 1.41595C25.8614 1.14185 25.536 0.924426 25.1778 0.776084C24.8197 0.627742 24.4359 0.551392 24.0482 0.551392ZM3.58632 5.61878C3.02523 5.61878 2.48712 5.39589 2.09037 4.99914C1.69362 4.60239 1.47073 4.06428 1.47073 3.50319C1.47073 2.9421 1.69362 2.40399 2.09037 2.00724C2.48712 1.61049 3.02523 1.3876 3.58632 1.3876H9.14708V5.61878H3.58632ZM9.98328 5.61878V1.3876H17.6596V5.61878H9.98328ZM24.0482 5.61878H18.4958V1.3876H24.0482C24.6093 1.3876 25.1474 1.61049 25.5442 2.00724C25.9409 2.40399 26.1638 2.9421 26.1638 3.50319C26.1638 4.06428 25.9409 4.60239 25.5442 4.99914C25.1474 5.39589 24.6093 5.61878 24.0482 5.61878Z" fill="#444444"/>
</svg>
