<svg width="28" height="28" viewBox="0 0 28 28" fill="none" xmlns="http://www.w3.org/2000/svg">
<path fill-rule="evenodd" clip-rule="evenodd" d="M10.96 5C12 5 12.85 5.84 12.85 6.88V12.37C12.85 12.64 12.63 12.85 12.37 12.85H6.88C5.85 12.85 5 12 5 10.96V6.88C5 5.85 5.85 5 6.88 5H10.96ZM6.88 11.9H11.9V6.88C11.9 6.37 11.48 5.95 10.96 5.95H6.88C6.37 5.95 5.95 6.36 5.95 6.88V10.96C5.95 11.48 6.36 11.9 6.88 11.9ZM20.86 22.75H16.78H16.77C15.74 22.75 14.89 21.91 14.89 20.87V15.38C14.89 15.11 15.11 14.9 15.37 14.9H20.86C21.9 14.9 22.75 15.75 22.75 16.79V20.87C22.75 21.9 21.9 22.75 20.86 22.75ZM20.86 15.85H15.85V20.86C15.85 21.37 16.26 21.79 16.78 21.79H20.86C21.38 21.79 21.8 21.38 21.8 20.86V16.78C21.8 16.27 21.38 15.85 20.86 15.85ZM22.75 6.88C22.75 5.84 21.9 5 20.86 5H16.78C15.74 5 14.9 5.85 14.9 6.88V12.37C14.9 12.63 15.11 12.85 15.38 12.85H20.87C21.91 12.85 22.76 12 22.76 10.96V6.88H22.75ZM21.8 10.96C21.8 11.48 21.38 11.9 20.86 11.9H15.85V6.88C15.85 6.36 16.27 5.95 16.78 5.95H20.86C21.38 5.95 21.8 6.37 21.8 6.88V10.96ZM10.96 22.75H6.88C5.85 22.75 5 21.91 5 20.87V16.79C5 15.75 5.84 14.9 6.88 14.9H12.37C12.64 14.9 12.85 15.12 12.85 15.38V20.87C12.85 21.9 12 22.75 10.96 22.75ZM6.88 15.85C6.37 15.85 5.95 16.27 5.95 16.79V20.87C5.95 21.38 6.36 21.8 6.88 21.8H10.96C11.48 21.8 11.9 21.39 11.9 20.87V15.85H6.88Z" fill="#444444"/>
</svg>
